<?xml version="1.0" encoding="utf-8"?>
<!-- Generator: Adobe Illustrator 28.0.0, SVG Export Plug-In . SVG Version: 6.00 Build 0)  -->
<svg version="1.1" id="Layer_1" xmlns="http://www.w3.org/2000/svg" xmlns:xlink="http://www.w3.org/1999/xlink" x="0px" y="0px"
	 viewBox="0 0 20 27" style="enable-background:new 0 0 20 27;" xml:space="preserve">
<style type="text/css">
	.st0{fill:#FFFFFF;}
</style>
<g>
	<path class="st0" d="M5.6,9C5.1,8.6,4.5,8.2,4,7.8C3.9,8,3.8,8.1,3.7,8.2C4.3,8.6,4.8,9,5.3,9.4C5.4,9.2,5.5,9.1,5.6,9z M6.6,8.4
		C6.5,7.8,6.3,7.2,6.1,6.6C6,6.6,5.8,6.7,5.7,6.7C5.9,7.3,6,7.9,6.2,8.5C6.3,8.5,6.5,8.5,6.6,8.4z M3.5,11c0.6-0.2,1.2-0.3,1.8-0.5
		c0-0.2-0.1-0.3-0.1-0.4c-0.6,0.2-1.2,0.3-1.8,0.5C3.4,10.7,3.4,10.8,3.5,11z"/>
	<path class="st0" d="M9.5,20.4c-0.3-0.1-0.6-0.2-0.7-0.5c-0.1-0.1-0.1-0.3-0.1-0.5c0-0.4,0-0.7,0-1.1c0-0.1,0-0.1-0.1-0.2
		c-0.2-0.2-0.4-0.4-0.4-0.8c0-0.2,0-0.4,0-0.6C8.1,16.9,8,17,7.9,17.1c-0.1,0.1-0.2,0.1-0.4,0c-0.2-0.1-0.4-0.3-0.6-0.4
		c0,0.2-0.1,0.4-0.1,0.6c0,0.1,0,0.1,0,0.2c0,0.1-0.1,0.2-0.2,0.2c-0.3,0-0.6,0-0.9,0c-0.1,0-0.2-0.1-0.2-0.2
		c-0.1-0.2-0.1-0.5-0.2-0.7c-0.2,0.1-0.4,0.3-0.5,0.4c-0.2,0.1-0.3,0.1-0.5,0c-0.2-0.2-0.4-0.4-0.6-0.6c-0.1-0.1-0.1-0.2,0-0.4
		c0.1-0.2,0.3-0.4,0.4-0.6c-0.2,0-0.4-0.1-0.6-0.1c-0.3-0.1-0.3-0.1-0.3-0.4c0-0.2,0-0.5,0-0.7c0-0.2,0.1-0.2,0.2-0.3
		c0.2-0.1,0.5-0.1,0.7-0.2c0,0,0-0.1-0.1-0.1c-0.1-0.2-0.2-0.3-0.3-0.5c-0.1-0.1-0.1-0.2,0-0.3c0.2-0.2,0.4-0.4,0.7-0.7
		c0.1-0.1,0.2-0.1,0.3,0c0.2,0.1,0.4,0.3,0.6,0.4c0,0,0,0,0,0c0-0.2,0.1-0.4,0.1-0.6c0-0.2,0.1-0.2,0.3-0.3c0.1-0.3,0.1-0.6,0.2-0.8
		c0.3-1.2,1-2.1,2-2.7C8.5,7.8,9.2,7.6,10,7.6c0,0,0.1,0,0.1,0c0.3,0.1,0.6,0,0.8-0.2c0.1-0.1,0.2-0.2,0.3-0.2
		C11.3,7,11.4,7,11.5,7.2c0.2,0.2,0.3,0.4,0.5,0.6c0.1,0.1,0.1,0.2,0.3,0.1c0.1,0,0.2-0.1,0.2-0.2c0-0.3,0.1-0.5,0.1-0.8
		c0-0.2,0.1-0.3,0.3-0.2c0.4,0.1,0.8,0.1,1.2,0.2c0.2,0,0.3,0.1,0.3,0.4c0,0.2-0.1,0.5-0.1,0.7c0,0.1,0,0.2,0.1,0.3
		c0.1,0.1,0.2,0,0.3-0.1c0.2-0.2,0.4-0.3,0.6-0.5c0.2-0.1,0.3-0.1,0.4,0.1c0.2,0.3,0.5,0.7,0.7,1c0.1,0.2,0.1,0.3-0.1,0.4
		c-0.2,0.2-0.4,0.3-0.6,0.5c-0.1,0.1-0.2,0.2-0.1,0.3c0,0.1,0.1,0.2,0.2,0.2c0.3,0,0.5,0.1,0.8,0.1c0.1,0,0.2,0.1,0.3,0.2
		c0,0.1,0,0.1,0,0.2c0,0.3-0.1,0.6-0.1,0.8c0,0.1,0,0.3-0.1,0.4c0,0.2-0.1,0.2-0.3,0.2c-0.3,0-0.5-0.1-0.8-0.1c-0.1,0-0.2,0-0.3,0.1
		c-0.1,0.1,0,0.2,0,0.3c0.2,0.2,0.3,0.4,0.5,0.6c0.1,0.2,0.1,0.3-0.1,0.4c-0.3,0.2-0.7,0.5-1,0.7c-0.2,0.1-0.3,0.1-0.4-0.1
		c-0.2-0.2-0.3-0.4-0.5-0.6c-0.1-0.1-0.2-0.2-0.3-0.1c-0.1,0-0.2,0.1-0.2,0.3c0,0.3-0.1,0.5-0.1,0.8c0,0.2-0.1,0.3-0.3,0.2
		c-0.4-0.1-0.9-0.1-1.3-0.2c-0.2,0-0.3-0.1-0.2-0.3c0-0.2,0.1-0.5,0.1-0.7c0,0,0-0.1,0-0.1c0-0.1-0.1-0.2-0.1-0.2
		c-0.1-0.1-0.2,0-0.3,0c-0.2,0.2-0.4,0.3-0.6,0.5c-0.2,0.2-0.3,0.2-0.5-0.1c-0.2-0.3-0.5-0.6-0.7-0.9c-0.1-0.2-0.1-0.3,0.1-0.4
		c0.2-0.2,0.4-0.3,0.6-0.5c0.1-0.1,0.2-0.2,0.1-0.3c0-0.1-0.1-0.2-0.2-0.2c-0.3,0-0.5-0.1-0.8-0.1C9.1,11,9,10.9,9,10.7
		c0.1-0.4,0.1-0.8,0.2-1.2c0-0.2,0.1-0.3,0.3-0.2c0.3,0,0.5,0.1,0.8,0.1c0.1,0,0.2,0,0.3-0.1c0.1-0.1,0-0.2,0-0.3
		c-0.2-0.2-0.3-0.4-0.5-0.6C10.1,8.2,10,8.1,10,8.1c0,0,0,0,0,0C9.7,8,9.4,8.1,9.1,8.1c-1.5,0.4-2.7,1.6-2.9,3.2
		c-0.2,1.6,0.4,2.8,1.6,3.7c0.2,0.1,0.4,0.3,0.5,0.4c0.2,0.3,0.4,0.6,0.4,0.9c0,0.3,0,0.6,0,0.9c0,0.3,0.2,0.5,0.5,0.5
		c0.6,0,1.2,0,1.8,0c0.3,0,0.5-0.2,0.5-0.5c0-0.3,0-0.5,0-0.8c0-0.6,0.2-1,0.7-1.3c0.2-0.1,0.4-0.3,0.5-0.4c0.1,0.1,0.2,0.2,0.3,0.3
		c-0.1,0.1-0.3,0.2-0.4,0.3c-0.5,0.3-0.7,0.7-0.7,1.3c0,0.2,0,0.4,0,0.7c0,0.3-0.1,0.6-0.4,0.8c0,0-0.1,0.1-0.1,0.2c0,0.3,0,0.6,0,1
		c0,0.5-0.2,1-0.8,1.1C10.2,20.4,9.9,20.4,9.5,20.4z M16.3,11.5c0-0.3,0.1-0.6,0.1-0.9c-0.2,0-0.4-0.1-0.6-0.1
		c-0.2,0-0.3-0.1-0.5-0.2c-0.3-0.3-0.3-0.8,0.1-1.1C15.7,9.2,15.8,9,16,8.9c-0.2-0.3-0.4-0.5-0.5-0.7c-0.2,0.2-0.4,0.3-0.6,0.4
		c-0.3,0.2-0.7,0.1-0.9-0.2c-0.1-0.2-0.1-0.4-0.1-0.6c0-0.2,0-0.3,0.1-0.5c-0.3,0-0.6-0.1-0.9-0.1c0,0.2-0.1,0.4-0.1,0.6
		c0,0.3-0.2,0.5-0.5,0.6c-0.3,0.1-0.6,0-0.8-0.3c-0.1-0.2-0.2-0.3-0.4-0.5c-0.2,0.2-0.5,0.4-0.7,0.5c0.1,0.2,0.3,0.4,0.4,0.5
		c0.2,0.3,0.2,0.5,0,0.8c-0.2,0.3-0.4,0.4-0.7,0.3c-0.2,0-0.4-0.1-0.6-0.1c0,0.3-0.1,0.6-0.1,0.9c0.2,0,0.4,0,0.6,0.1
		c0.1,0,0.3,0.1,0.4,0.2c0.3,0.3,0.3,0.7,0,1c-0.2,0.2-0.4,0.3-0.6,0.4c0.2,0.2,0.4,0.5,0.5,0.7c0.2-0.1,0.3-0.3,0.5-0.4
		c0.2-0.1,0.4-0.2,0.6-0.1c0.4,0.1,0.6,0.4,0.5,0.8c0,0.2-0.1,0.4-0.1,0.6c0.3,0,0.6,0.1,0.9,0.1c0-0.1,0-0.1,0-0.2
		c0-0.2,0-0.4,0.1-0.5c0.1-0.3,0.2-0.4,0.5-0.5c0.3-0.1,0.5,0,0.7,0.2c0.2,0.2,0.3,0.4,0.4,0.6c0.2-0.2,0.5-0.4,0.7-0.5
		c-0.1-0.2-0.3-0.3-0.4-0.5c-0.2-0.3-0.2-0.6,0-0.8c0.2-0.2,0.4-0.4,0.7-0.3C15.9,11.5,16.1,11.5,16.3,11.5z M4.1,13.1
		c0.1,0.2,0.2,0.3,0.3,0.5c0.2,0.3,0.1,0.6-0.3,0.7c-0.2,0-0.4,0.1-0.5,0.1c0,0.2,0,0.4,0,0.5c0.2,0,0.3,0.1,0.5,0.1
		c0.4,0.1,0.5,0.4,0.3,0.8c-0.1,0.1-0.2,0.3-0.3,0.4c0.1,0.1,0.3,0.3,0.4,0.4c0.1-0.1,0.3-0.2,0.4-0.3c0.3-0.2,0.7-0.1,0.8,0.3
		c0,0.2,0.1,0.3,0.1,0.5c0.2,0,0.4,0,0.5,0c0-0.2,0.1-0.4,0.1-0.5c0.1-0.4,0.4-0.5,0.8-0.3c0.1,0.1,0.3,0.2,0.5,0.3
		c0.1-0.1,0.2-0.3,0.4-0.4c0.1-0.1,0.1-0.2,0-0.3c0,0,0,0,0-0.1c-0.2-0.2-0.5-0.4-0.7-0.7C6.8,16,6.3,16.2,5.7,16
		c-0.6-0.2-1-0.7-1-1.3c0-0.3,0.1-0.6,0.3-0.8c0.2-0.3,0.6-0.5,0.9-0.6c-0.1-0.2-0.1-0.5-0.2-0.7c0,0,0,0.1,0,0.1
		c-0.1,0.4-0.4,0.5-0.8,0.3c-0.1-0.1-0.3-0.2-0.4-0.3C4.4,12.8,4.3,13,4.1,13.1z M6.2,15.6c0.3,0,0.6-0.2,0.7-0.5c0-0.1,0-0.1,0-0.2
		c-0.3-0.3-0.5-0.6-0.7-1c-0.1-0.1-0.2-0.2-0.3-0.1c-0.5,0.1-0.8,0.5-0.7,1C5.2,15.2,5.6,15.6,6.2,15.6z M11,19.3
		c-0.6,0-1.2,0-1.8,0c0,0.1,0,0.2,0,0.2c0,0.2,0.2,0.4,0.4,0.4c0.3,0,0.6,0,0.9,0c0.2,0,0.4-0.2,0.4-0.4C11,19.4,11,19.4,11,19.3z
		 M11,18.4c-0.6,0-1.2,0-1.8,0c0,0.2,0,0.3,0,0.4c0.6,0,1.2,0,1.8,0C11,18.6,11,18.5,11,18.4z"/>
	<path class="st0" d="M10.3,16.3c-0.2,0-0.3,0-0.4,0c0-0.1,0-0.2,0-0.3c-0.1-0.5-0.4-0.9-0.9-1.1c-0.5-0.2-0.9-0.5-1.2-0.8
		c-1.2-1.3-1.1-3.4,0.2-4.6c0.1-0.1,0.3-0.2,0.4-0.3c0.1,0.1,0.2,0.3,0.2,0.4C8.4,9.7,8.3,9.8,8.1,10c-1.4,1.3-1,3.7,0.8,4.5
		c0.4,0.2,0.8,0.4,1,0.7C10.2,15.5,10.3,15.9,10.3,16.3z"/>
	<path class="st0" d="M14,16.7c0.1-0.1,0.2-0.2,0.3-0.4c0.5,0.4,0.9,0.8,1.4,1.1c-0.1,0.1-0.2,0.2-0.3,0.4
		C15,17.5,14.5,17.1,14,16.7z"/>
	<path class="st0" d="M13.1,18.6c0-0.5,0-1.1,0-1.6c0.1,0,0.3,0,0.4,0c0,0.5,0,1.1,0,1.6C13.3,18.6,13.2,18.6,13.1,18.6z"/>
	<path class="st0" d="M14.4,15.6c0-0.1,0-0.3,0-0.4c0.5,0,1.1,0,1.6,0c0,0.1,0,0.3,0,0.4C15.5,15.6,15,15.6,14.4,15.6z"/>
	<path class="st0" d="M9.8,16.7c0.1,0,0.3,0,0.4,0c0,0.2,0,0.4,0,0.7c-0.1,0-0.3,0-0.4,0C9.8,17.2,9.8,17,9.8,16.7z"/>
	<path class="st0" d="M5.6,9C5.5,9.1,5.4,9.2,5.3,9.4C4.8,9,4.3,8.6,3.7,8.2C3.8,8.1,3.9,8,4,7.8C4.5,8.2,5.1,8.6,5.6,9z"/>
	<path class="st0" d="M6.6,8.4c-0.2,0-0.3,0.1-0.4,0.1C6,7.9,5.9,7.3,5.7,6.7c0.1,0,0.3-0.1,0.4-0.1C6.3,7.2,6.5,7.8,6.6,8.4z"/>
	<path class="st0" d="M3.5,11c0-0.2-0.1-0.3-0.1-0.4c0.6-0.2,1.2-0.3,1.8-0.5c0,0.1,0.1,0.3,0.1,0.4C4.7,10.7,4.1,10.8,3.5,11z"/>
	<path class="st0" d="M11.1,10.6c0-1,0.8-1.8,1.8-1.8c1,0,1.8,0.8,1.8,1.8c0,1-0.8,1.8-1.8,1.8C12,12.4,11.2,11.6,11.1,10.6z
		 M14.4,10.6c0-0.8-0.6-1.4-1.4-1.4c-0.8,0-1.4,0.6-1.4,1.4c0,0.7,0.6,1.4,1.4,1.4C13.7,12,14.4,11.4,14.4,10.6z"/>
</g>
</svg>
