<?xml version="1.0" encoding="utf-8"?>
<!-- Generator: Adobe Illustrator 28.0.0, SVG Export Plug-In . SVG Version: 6.00 Build 0)  -->
<svg version="1.1" id="Layer_1" xmlns="http://www.w3.org/2000/svg" xmlns:xlink="http://www.w3.org/1999/xlink" x="0px" y="0px"
	 viewBox="0 0 450.6 265.7" style="enable-background:new 0 0 450.6 265.7;" xml:space="preserve">
<style type="text/css">
	.st0{enable-background:new    ;}
	.st1{fill:#FFFFFF;}
	.st2{clip-path:url(#SVGID_00000169548666149266065170000013180727446100607374_);}
	.st3{fill:#0084BD;}
</style>
<g>
	<g>
		<g class="st0">
			<path class="st1" d="M6.5,201.4c-0.1-0.2-0.1-0.4-0.2-0.7c0-0.2-0.1-0.5-0.1-0.8c0-0.3-0.1-0.7-0.1-1.1c0-0.4,0-0.9,0-1.5
				s0-1.1,0-1.5c0-0.4,0-0.8,0.1-1.1c0-0.3,0.1-0.6,0.1-0.8c0-0.2,0.1-0.4,0.2-0.7c0.4-1.2,1-2,1.8-2.6c0.8-0.6,1.8-0.8,3-0.8
				c1.1,0,2,0.3,2.8,0.8c0.8,0.5,1.4,1.2,1.8,2.2c0,0.1,0,0.2-0.1,0.3l-1.3,0.6c-0.1,0.1-0.2,0-0.3-0.1c-0.3-0.6-0.7-1-1.1-1.4
				c-0.5-0.4-1.1-0.5-1.9-0.5c-0.8,0-1.4,0.2-1.9,0.6c-0.5,0.4-0.8,0.9-1.1,1.6c0,0.2-0.1,0.3-0.1,0.5s-0.1,0.4-0.1,0.7
				c0,0.3,0,0.6-0.1,1s0,0.9,0,1.4s0,1.1,0,1.4s0,0.7,0.1,1c0,0.3,0,0.5,0.1,0.7s0.1,0.3,0.1,0.5c0.2,0.7,0.6,1.2,1.1,1.6
				c0.5,0.4,1.1,0.6,1.9,0.6c0.8,0,1.4-0.2,1.9-0.5c0.5-0.4,0.8-0.8,1.1-1.4c0.1-0.1,0.2-0.2,0.3-0.1l1.3,0.6
				c0.1,0.1,0.1,0.1,0.1,0.3c-0.4,0.9-1,1.7-1.8,2.2c-0.8,0.5-1.8,0.8-2.8,0.8c-1.2,0-2.2-0.3-3-0.8C7.5,203.4,6.9,202.6,6.5,201.4z
				"/>
			<path class="st1" d="M22.5,204.8c-1,0-1.9-0.2-2.6-0.7s-1.2-1.2-1.5-2c-0.1-0.4-0.2-0.7-0.3-1.1s-0.1-0.9-0.1-1.5s0-1.1,0.1-1.5
				c0.1-0.4,0.1-0.8,0.3-1.1c0.3-0.9,0.8-1.6,1.5-2s1.6-0.7,2.6-0.7c1,0,1.9,0.2,2.6,0.7c0.7,0.5,1.2,1.2,1.5,2
				c0.1,0.4,0.2,0.7,0.3,1.1c0.1,0.4,0.1,0.9,0.1,1.5s0,1.1-0.1,1.5s-0.1,0.8-0.3,1.1c-0.3,0.9-0.8,1.5-1.5,2
				C24.3,204.6,23.5,204.8,22.5,204.8z M22.5,203.2c0.6,0,1.1-0.1,1.5-0.4s0.7-0.7,0.9-1.2c0.1-0.3,0.1-0.6,0.2-0.9s0.1-0.7,0.1-1.2
				c0-0.5,0-0.9-0.1-1.2c0-0.3-0.1-0.6-0.2-0.9c-0.2-0.5-0.5-0.9-0.9-1.2s-0.9-0.4-1.5-0.4c-0.6,0-1.1,0.1-1.5,0.4
				c-0.4,0.3-0.7,0.7-0.9,1.2c-0.1,0.3-0.1,0.6-0.2,0.9c0,0.3-0.1,0.7-0.1,1.2c0,0.5,0,0.9,0.1,1.2s0.1,0.6,0.2,0.9
				c0.2,0.5,0.5,0.9,0.9,1.2C21.4,203,21.9,203.2,22.5,203.2z"/>
			<path class="st1" d="M32.2,204.7c-0.9,0-1.5-0.2-1.9-0.7c-0.4-0.4-0.6-1.1-0.6-2v-11.8c0-0.1,0.1-0.2,0.2-0.2h1.4
				c0.1,0,0.2,0.1,0.2,0.2v11.6c0,0.4,0.1,0.7,0.2,0.9c0.2,0.2,0.4,0.2,0.8,0.2h0.4c0.1,0,0.2,0.1,0.2,0.2v1.2
				c0,0.1-0.1,0.2-0.2,0.2H32.2z"/>
			<path class="st1" d="M38.1,204.7c-0.9,0-1.5-0.2-1.9-0.7c-0.4-0.4-0.6-1.1-0.6-2v-11.8c0-0.1,0.1-0.2,0.2-0.2h1.4
				c0.1,0,0.2,0.1,0.2,0.2v11.6c0,0.4,0.1,0.7,0.2,0.9c0.2,0.2,0.4,0.2,0.8,0.2h0.4c0.1,0,0.2,0.1,0.2,0.2v1.2
				c0,0.1-0.1,0.2-0.2,0.2H38.1z"/>
			<path class="st1" d="M45.4,204.8c-1,0-1.9-0.2-2.6-0.7s-1.2-1.2-1.5-2.1c-0.1-0.3-0.2-0.7-0.3-1.1s-0.1-0.9-0.1-1.5
				s0-1.1,0.1-1.5c0-0.4,0.1-0.8,0.2-1.1c0.3-0.9,0.8-1.6,1.5-2.1c0.7-0.5,1.6-0.7,2.5-0.7s1.8,0.2,2.5,0.7s1.2,1.2,1.5,2
				c0.1,0.2,0.1,0.3,0.1,0.5s0.1,0.4,0.1,0.6c0,0.2,0,0.5,0.1,0.8c0,0.3,0,0.6,0,1c0,0.1-0.1,0.2-0.2,0.2h-6.5c-0.1,0-0.1,0-0.1,0.1
				c0,0.3,0,0.5,0,0.7c0,0.2,0.1,0.4,0.1,0.5c0.2,0.6,0.5,1,1,1.3c0.4,0.3,1,0.4,1.6,0.4c0.6,0,1.1-0.1,1.6-0.3s0.8-0.5,1.1-0.8
				c0.1-0.1,0.2-0.1,0.3,0l0.9,0.8c0.1,0.1,0.1,0.2,0,0.3c-0.4,0.5-1,0.9-1.6,1.3S46.3,204.8,45.4,204.8z M47.7,198.6
				c0.1,0,0.1,0,0.1-0.1c0-0.5-0.1-0.8-0.1-1.1c-0.2-0.5-0.5-0.9-0.9-1.2c-0.4-0.3-0.9-0.4-1.5-0.4c-0.6,0-1.1,0.1-1.5,0.4
				c-0.4,0.3-0.7,0.7-0.9,1.2c-0.1,0.3-0.1,0.7-0.1,1.1c0,0.1,0,0.1,0.1,0.1H47.7z"/>
			<path class="st1" d="M55.9,208.7c-0.7,0-1.4-0.1-2.1-0.4s-1.1-0.6-1.5-1.1c-0.1-0.1-0.1-0.2,0-0.3l0.9-0.9c0.1-0.1,0.2-0.1,0.3,0
				c0.4,0.3,0.7,0.6,1.1,0.8c0.4,0.2,0.8,0.3,1.3,0.3c0.9,0,1.5-0.2,1.9-0.7c0.4-0.5,0.7-1.2,0.7-2.1V203h0c-0.2,0.4-0.6,0.8-1,1
				c-0.4,0.3-1.1,0.4-1.8,0.4c-0.9,0-1.6-0.2-2.2-0.6c-0.6-0.4-1-1-1.3-1.9c-0.1-0.4-0.2-0.8-0.3-1.2c-0.1-0.4-0.1-0.9-0.1-1.5
				s0-1.1,0.1-1.5c0-0.4,0.1-0.8,0.3-1.2c0.3-0.8,0.7-1.4,1.3-1.9c0.6-0.4,1.3-0.6,2.2-0.6c0.8,0,1.4,0.1,1.8,0.4s0.8,0.6,1,1h0v-1
				c0-0.1,0.1-0.2,0.2-0.2h1.4c0.1,0,0.2,0.1,0.2,0.2v9.6c0,1.5-0.4,2.6-1.1,3.4C58.4,208.3,57.3,208.7,55.9,208.7z M56.1,202.8
				c1.1,0,1.8-0.5,2.2-1.5c0.1-0.3,0.1-0.5,0.2-0.9c0-0.3,0.1-0.7,0.1-1.1s0-0.8-0.1-1.1c0-0.3-0.1-0.6-0.2-0.9
				c-0.4-1-1.1-1.5-2.2-1.5c-1.1,0-1.8,0.5-2.2,1.5c-0.1,0.3-0.2,0.6-0.2,0.9c0,0.3-0.1,0.7-0.1,1.1c0,0.8,0.1,1.5,0.3,2
				C54.3,202.3,55,202.8,56.1,202.8z"/>
			<path class="st1" d="M67.7,204.8c-1,0-1.9-0.2-2.6-0.7s-1.2-1.2-1.5-2.1c-0.1-0.3-0.2-0.7-0.3-1.1s-0.1-0.9-0.1-1.5
				s0-1.1,0.1-1.5c0-0.4,0.1-0.8,0.2-1.1c0.3-0.9,0.8-1.6,1.5-2.1c0.7-0.5,1.6-0.7,2.5-0.7s1.8,0.2,2.5,0.7s1.2,1.2,1.5,2
				c0.1,0.2,0.1,0.3,0.1,0.5s0.1,0.4,0.1,0.6c0,0.2,0,0.5,0.1,0.8c0,0.3,0,0.6,0,1c0,0.1-0.1,0.2-0.2,0.2h-6.5c-0.1,0-0.1,0-0.1,0.1
				c0,0.3,0,0.5,0,0.7c0,0.2,0.1,0.4,0.1,0.5c0.2,0.6,0.5,1,1,1.3c0.4,0.3,1,0.4,1.6,0.4c0.6,0,1.1-0.1,1.6-0.3s0.8-0.5,1.1-0.8
				c0.1-0.1,0.2-0.1,0.3,0l0.9,0.8c0.1,0.1,0.1,0.2,0,0.3c-0.4,0.5-1,0.9-1.6,1.3S68.6,204.8,67.7,204.8z M69.9,198.6
				c0.1,0,0.1,0,0.1-0.1c0-0.5-0.1-0.8-0.1-1.1c-0.2-0.5-0.5-0.9-0.9-1.2c-0.4-0.3-0.9-0.4-1.5-0.4c-0.6,0-1.1,0.1-1.5,0.4
				c-0.4,0.3-0.7,0.7-0.9,1.2c-0.1,0.3-0.1,0.7-0.1,1.1c0,0.1,0,0.1,0.1,0.1H69.9z"/>
			<path class="st1" d="M83.7,204.8c-1,0-1.9-0.2-2.6-0.7s-1.2-1.2-1.5-2c-0.1-0.4-0.2-0.7-0.3-1.1s-0.1-0.9-0.1-1.5s0-1.1,0.1-1.5
				c0.1-0.4,0.1-0.8,0.3-1.1c0.3-0.9,0.8-1.6,1.5-2s1.6-0.7,2.6-0.7c1,0,1.9,0.2,2.6,0.7c0.7,0.5,1.2,1.2,1.5,2
				c0.1,0.4,0.2,0.7,0.3,1.1c0.1,0.4,0.1,0.9,0.1,1.5s0,1.1-0.1,1.5s-0.1,0.8-0.3,1.1c-0.3,0.9-0.8,1.5-1.5,2
				C85.6,204.6,84.7,204.8,83.7,204.8z M83.7,203.2c0.6,0,1.1-0.1,1.5-0.4s0.7-0.7,0.9-1.2c0.1-0.3,0.1-0.6,0.2-0.9s0.1-0.7,0.1-1.2
				c0-0.5,0-0.9-0.1-1.2c0-0.3-0.1-0.6-0.2-0.9c-0.2-0.5-0.5-0.9-0.9-1.2s-0.9-0.4-1.5-0.4c-0.6,0-1.1,0.1-1.5,0.4
				c-0.4,0.3-0.7,0.7-0.9,1.2c-0.1,0.3-0.1,0.6-0.2,0.9c0,0.3-0.1,0.7-0.1,1.2c0,0.5,0,0.9,0.1,1.2s0.1,0.6,0.2,0.9
				c0.2,0.5,0.5,0.9,0.9,1.2C82.7,203,83.1,203.2,83.7,203.2z"/>
			<path class="st1" d="M91.5,204.6c-0.1,0-0.2-0.1-0.2-0.2v-8.5c0-0.1,0-0.1-0.1-0.1h-0.9c-0.1,0-0.2-0.1-0.2-0.2v-1
				c0-0.1,0.1-0.2,0.2-0.2h0.9c0.1,0,0.1,0,0.1-0.1v-0.9c0-1.2,0.3-2.1,0.8-2.6c0.5-0.5,1.3-0.7,2.4-0.7h0.8c0.1,0,0.2,0.1,0.2,0.2
				v1.2c0,0.1-0.1,0.2-0.2,0.2h-0.6c-0.3,0-0.6,0-0.8,0.1c-0.2,0-0.4,0.1-0.5,0.2s-0.2,0.3-0.2,0.5c0,0.2-0.1,0.5-0.1,0.8v1
				c0,0.1,0,0.1,0.1,0.1h2c0.1,0,0.2,0.1,0.2,0.2v1c0,0.1-0.1,0.2-0.2,0.2h-2c-0.1,0-0.1,0-0.1,0.1v8.5c0,0.1-0.1,0.2-0.2,0.2H91.5z
				"/>
			<path class="st1" d="M102.9,201.4c-0.1-0.2-0.1-0.4-0.2-0.7c0-0.2-0.1-0.5-0.1-0.8c0-0.3-0.1-0.7-0.1-1.1c0-0.4,0-0.9,0-1.5
				s0-1.1,0-1.5c0-0.4,0-0.8,0.1-1.1c0-0.3,0.1-0.6,0.1-0.8c0-0.2,0.1-0.4,0.2-0.7c0.4-1.2,1-2,1.8-2.6c0.8-0.6,1.8-0.8,3-0.8
				c1.1,0,2,0.3,2.8,0.8c0.8,0.5,1.4,1.2,1.8,2.2c0,0.1,0,0.2-0.1,0.3l-1.3,0.6c-0.1,0.1-0.2,0-0.3-0.1c-0.3-0.6-0.7-1-1.1-1.4
				c-0.5-0.4-1.1-0.5-1.9-0.5c-0.8,0-1.4,0.2-1.9,0.6c-0.5,0.4-0.8,0.9-1.1,1.6c0,0.2-0.1,0.3-0.1,0.5s-0.1,0.4-0.1,0.7
				c0,0.3,0,0.6-0.1,1s0,0.9,0,1.4s0,1.1,0,1.4s0,0.7,0.1,1c0,0.3,0,0.5,0.1,0.7s0.1,0.3,0.1,0.5c0.2,0.7,0.6,1.2,1.1,1.6
				c0.5,0.4,1.1,0.6,1.9,0.6c0.8,0,1.4-0.2,1.9-0.5c0.5-0.4,0.8-0.8,1.1-1.4c0.1-0.1,0.2-0.2,0.3-0.1l1.3,0.6
				c0.1,0.1,0.1,0.1,0.1,0.3c-0.4,0.9-1,1.7-1.8,2.2c-0.8,0.5-1.8,0.8-2.8,0.8c-1.2,0-2.2-0.3-3-0.8
				C103.8,203.4,103.2,202.6,102.9,201.4z"/>
			<path class="st1" d="M118.8,204.8c-1,0-1.9-0.2-2.6-0.7s-1.2-1.2-1.5-2c-0.1-0.4-0.2-0.7-0.3-1.1s-0.1-0.9-0.1-1.5s0-1.1,0.1-1.5
				c0.1-0.4,0.1-0.8,0.3-1.1c0.3-0.9,0.8-1.6,1.5-2s1.6-0.7,2.6-0.7c1,0,1.9,0.2,2.6,0.7c0.7,0.5,1.2,1.2,1.5,2
				c0.1,0.4,0.2,0.7,0.3,1.1c0.1,0.4,0.1,0.9,0.1,1.5s0,1.1-0.1,1.5s-0.1,0.8-0.3,1.1c-0.3,0.9-0.8,1.5-1.5,2
				C120.7,204.6,119.8,204.8,118.8,204.8z M118.8,203.2c0.6,0,1.1-0.1,1.5-0.4s0.7-0.7,0.9-1.2c0.1-0.3,0.1-0.6,0.2-0.9
				s0.1-0.7,0.1-1.2c0-0.5,0-0.9-0.1-1.2c0-0.3-0.1-0.6-0.2-0.9c-0.2-0.5-0.5-0.9-0.9-1.2s-0.9-0.4-1.5-0.4c-0.6,0-1.1,0.1-1.5,0.4
				c-0.4,0.3-0.7,0.7-0.9,1.2c-0.1,0.3-0.1,0.6-0.2,0.9c0,0.3-0.1,0.7-0.1,1.2c0,0.5,0,0.9,0.1,1.2s0.1,0.6,0.2,0.9
				c0.2,0.5,0.5,0.9,0.9,1.2C117.8,203,118.3,203.2,118.8,203.2z"/>
			<path class="st1" d="M139.2,204.6c-0.1,0-0.2-0.1-0.2-0.2v-6c0-0.8-0.2-1.5-0.6-1.9c-0.4-0.5-1-0.7-1.7-0.7
				c-0.7,0-1.2,0.2-1.7,0.7s-0.7,1.1-0.7,1.8v6.1c0,0.1-0.1,0.2-0.2,0.2h-1.4c-0.1,0-0.2-0.1-0.2-0.2v-6c0-0.8-0.2-1.5-0.6-1.9
				c-0.4-0.5-1-0.7-1.7-0.7c-0.7,0-1.3,0.2-1.7,0.7c-0.4,0.4-0.7,1.1-0.7,1.8v6.1c0,0.1-0.1,0.2-0.2,0.2h-1.4
				c-0.1,0-0.2-0.1-0.2-0.2v-9.8c0-0.1,0.1-0.2,0.2-0.2h1.4c0.1,0,0.2,0.1,0.2,0.2v0.9h0c0.2-0.4,0.6-0.7,1.1-1
				c0.5-0.3,1.1-0.4,1.8-0.4s1.3,0.1,1.8,0.4s0.9,0.7,1.2,1.2h0c0.4-0.5,0.8-0.9,1.3-1.2s1.2-0.4,2-0.4c1.2,0,2.1,0.4,2.7,1
				c0.6,0.7,0.9,1.6,0.9,2.8v6.4c0,0.1-0.1,0.2-0.2,0.2H139.2z"/>
			<path class="st1" d="M144.4,208.4c-0.1,0-0.2-0.1-0.2-0.2v-13.7c0-0.1,0.1-0.2,0.2-0.2h1.4c0.1,0,0.2,0.1,0.2,0.2v1h0
				c0.2-0.4,0.6-0.8,1.1-1c0.5-0.3,1.1-0.4,1.9-0.4c0.9,0,1.6,0.2,2.2,0.6s1,1,1.3,1.8c0.1,0.4,0.2,0.8,0.3,1.3c0,0.4,0.1,1,0.1,1.6
				c0,0.6,0,1.2-0.1,1.6c-0.1,0.4-0.1,0.9-0.3,1.3c-0.3,0.8-0.7,1.4-1.3,1.8c-0.6,0.4-1.3,0.6-2.2,0.6c-0.8,0-1.4-0.1-1.9-0.4
				c-0.5-0.3-0.8-0.6-1.1-1h0v4.8c0,0.1-0.1,0.2-0.2,0.2H144.4z M148.5,203.2c1.1,0,1.9-0.5,2.2-1.6c0.1-0.3,0.1-0.6,0.2-0.9
				c0-0.3,0.1-0.7,0.1-1.2c0-0.5,0-0.9-0.1-1.2c0-0.3-0.1-0.7-0.2-0.9c-0.4-1-1.1-1.5-2.2-1.5c-1.2,0-1.9,0.5-2.3,1.5
				c-0.1,0.3-0.1,0.5-0.2,0.9s-0.1,0.7-0.1,1.3s0,0.9,0.1,1.3s0.1,0.6,0.2,0.9C146.6,202.6,147.3,203.2,148.5,203.2z"/>
			<path class="st1" d="M162.2,204.6c-0.1,0-0.2-0.1-0.2-0.2v-1h0c-0.3,0.4-0.6,0.8-1.1,1c-0.5,0.3-1,0.4-1.7,0.4
				c-1.1,0-2-0.4-2.6-1.1c-0.6-0.7-0.9-1.6-0.9-2.8v-6.4c0-0.1,0.1-0.2,0.2-0.2h1.4c0.1,0,0.2,0.1,0.2,0.2v6c0,0.8,0.2,1.5,0.6,1.9
				c0.4,0.5,0.9,0.7,1.7,0.7c0.7,0,1.3-0.2,1.7-0.7c0.4-0.5,0.6-1.1,0.6-1.8v-6.1c0-0.1,0.1-0.2,0.2-0.2h1.4c0.1,0,0.2,0.1,0.2,0.2
				v9.8c0,0.1-0.1,0.2-0.2,0.2H162.2z"/>
			<path class="st1" d="M170.2,204.7c-1,0-1.7-0.2-2.1-0.7s-0.6-1.2-0.6-2.2v-5.9c0-0.1,0-0.1-0.1-0.1h-0.9c-0.1,0-0.2-0.1-0.2-0.2
				v-1c0-0.1,0.1-0.2,0.2-0.2h0.9c0.1,0,0.1,0,0.1-0.1v-2.9c0-0.1,0.1-0.2,0.2-0.2h1.4c0.1,0,0.2,0.1,0.2,0.2v2.9
				c0,0.1,0,0.1,0.1,0.1h1.6c0.1,0,0.2,0.1,0.2,0.2v1c0,0.1-0.1,0.2-0.2,0.2h-1.6c-0.1,0-0.1,0-0.1,0.1v5.8c0,0.5,0.1,0.9,0.3,1
				c0.2,0.2,0.5,0.3,1,0.3h0.4c0.1,0,0.2,0.1,0.2,0.2v1.2c0,0.1-0.1,0.2-0.2,0.2H170.2z"/>
			<path class="st1" d="M177.9,204.8c-1,0-1.9-0.2-2.6-0.7s-1.2-1.2-1.5-2.1c-0.1-0.3-0.2-0.7-0.3-1.1s-0.1-0.9-0.1-1.5
				s0-1.1,0.1-1.5c0-0.4,0.1-0.8,0.2-1.1c0.3-0.9,0.8-1.6,1.5-2.1c0.7-0.5,1.6-0.7,2.5-0.7s1.8,0.2,2.5,0.7s1.2,1.2,1.5,2
				c0.1,0.2,0.1,0.3,0.1,0.5s0.1,0.4,0.1,0.6c0,0.2,0,0.5,0.1,0.8c0,0.3,0,0.6,0,1c0,0.1-0.1,0.2-0.2,0.2h-6.5c-0.1,0-0.1,0-0.1,0.1
				c0,0.3,0,0.5,0,0.7c0,0.2,0.1,0.4,0.1,0.5c0.2,0.6,0.5,1,1,1.3c0.4,0.3,1,0.4,1.6,0.4c0.6,0,1.1-0.1,1.6-0.3s0.8-0.5,1.1-0.8
				c0.1-0.1,0.2-0.1,0.3,0l0.9,0.8c0.1,0.1,0.1,0.2,0,0.3c-0.4,0.5-1,0.9-1.6,1.3S178.8,204.8,177.9,204.8z M180.1,198.6
				c0.1,0,0.1,0,0.1-0.1c0-0.5-0.1-0.8-0.1-1.1c-0.2-0.5-0.5-0.9-0.9-1.2c-0.4-0.3-0.9-0.4-1.5-0.4c-0.6,0-1.1,0.1-1.5,0.4
				c-0.4,0.3-0.7,0.7-0.9,1.2c-0.1,0.3-0.1,0.7-0.1,1.1c0,0.1,0,0.1,0.1,0.1H180.1z"/>
			<path class="st1" d="M185.2,204.6c-0.1,0-0.2-0.1-0.2-0.2v-9.8c0-0.1,0.1-0.2,0.2-0.2h1.4c0.1,0,0.2,0.1,0.2,0.2v1h0
				c0.2-0.4,0.6-0.8,1-1.1c0.4-0.3,1-0.4,1.7-0.4c0.4,0,0.8,0.1,1.2,0.2s0.7,0.3,0.9,0.6c0.1,0.1,0.1,0.2,0,0.3l-0.8,1
				c-0.1,0.1-0.2,0.1-0.3,0c-0.2-0.2-0.5-0.3-0.7-0.4s-0.5-0.1-0.8-0.1c-0.8,0-1.3,0.3-1.7,0.8c-0.3,0.5-0.5,1.3-0.5,2.2v5.6
				c0,0.1-0.1,0.2-0.2,0.2H185.2z"/>
			<path class="st1" d="M205.1,204.6c-0.1,0-0.2-0.1-0.2-0.2v-0.9h0c-0.2,0.4-0.6,0.7-1.1,1c-0.5,0.3-1.1,0.4-1.9,0.4
				c-0.5,0-0.9-0.1-1.4-0.2s-0.8-0.3-1.1-0.6c-0.3-0.3-0.5-0.6-0.7-1c-0.2-0.4-0.3-0.8-0.3-1.4c0-1.1,0.4-1.9,1.1-2.4
				c0.7-0.5,1.7-0.8,2.9-0.8h2.3c0.1,0,0.1,0,0.1-0.1v-0.7c0-0.7-0.2-1.2-0.5-1.5c-0.3-0.3-1-0.5-1.9-0.5c-0.6,0-1.1,0.1-1.5,0.2
				s-0.7,0.3-1,0.5c-0.1,0.1-0.2,0.1-0.3,0l-0.6-1c-0.1-0.1,0-0.2,0-0.3c0.4-0.3,0.9-0.5,1.5-0.7c0.6-0.2,1.3-0.3,2-0.3
				c1.5,0,2.5,0.3,3.1,0.8c0.6,0.5,0.9,1.4,0.9,2.7v6.8c0,0.1-0.1,0.2-0.2,0.2H205.1z M202.2,203.3c0.8,0,1.5-0.2,1.9-0.5
				s0.7-0.8,0.7-1.5v-1.1c0-0.1,0-0.1-0.1-0.1h-2.1c-0.9,0-1.6,0.1-2,0.4c-0.4,0.3-0.6,0.7-0.6,1.3c0,0.5,0.2,0.9,0.6,1.2
				C201,203.1,201.6,203.3,202.2,203.3z"/>
			<path class="st1" d="M216.7,204.6c-0.1,0-0.2-0.1-0.2-0.2v-6c0-0.8-0.2-1.5-0.6-1.9c-0.4-0.5-1-0.7-1.7-0.7
				c-0.7,0-1.3,0.2-1.7,0.7c-0.4,0.4-0.7,1.1-0.7,1.8v6.1c0,0.1-0.1,0.2-0.2,0.2h-1.4c-0.1,0-0.2-0.1-0.2-0.2v-9.8
				c0-0.1,0.1-0.2,0.2-0.2h1.4c0.1,0,0.2,0.1,0.2,0.2v0.9h0c0.2-0.4,0.6-0.7,1.1-1c0.5-0.3,1.1-0.4,1.8-0.4c1.1,0,2,0.4,2.6,1
				c0.6,0.7,0.9,1.6,0.9,2.8v6.4c0,0.1-0.1,0.2-0.2,0.2H216.7z"/>
			<path class="st1" d="M228.1,204.6c-0.1,0-0.2-0.1-0.2-0.2v-1h0c-0.2,0.4-0.6,0.8-1.1,1c-0.5,0.3-1.1,0.4-1.9,0.4
				c-0.9,0-1.6-0.2-2.2-0.6c-0.6-0.4-1-1-1.3-1.8c-0.1-0.4-0.2-0.8-0.3-1.3c0-0.4-0.1-1-0.1-1.6c0-0.6,0-1.2,0.1-1.6
				s0.1-0.9,0.3-1.3c0.3-0.8,0.7-1.4,1.3-1.8s1.3-0.6,2.2-0.6c0.8,0,1.4,0.1,1.9,0.4c0.5,0.3,0.8,0.6,1.1,1h0v-5.3
				c0-0.1,0.1-0.2,0.2-0.2h1.4c0.1,0,0.2,0.1,0.2,0.2v14.1c0,0.1-0.1,0.2-0.2,0.2H228.1z M225.4,203.2c1.2,0,1.9-0.5,2.3-1.6
				c0.1-0.2,0.1-0.5,0.2-0.9c0-0.3,0.1-0.8,0.1-1.3s0-0.9-0.1-1.3c0-0.3-0.1-0.6-0.2-0.9c-0.3-1-1.1-1.5-2.3-1.5
				c-1.1,0-1.9,0.5-2.2,1.5c-0.1,0.3-0.1,0.6-0.2,0.9c0,0.3-0.1,0.7-0.1,1.2c0,0.5,0,0.9,0.1,1.2s0.1,0.6,0.2,0.9
				C223.5,202.6,224.2,203.2,225.4,203.2z"/>
			<path class="st1" d="M238.4,190.2c0-0.1,0.1-0.2,0.2-0.2h1.5c0.1,0,0.2,0.1,0.2,0.2v14.1c0,0.1-0.1,0.2-0.2,0.2h-1.5
				c-0.1,0-0.2-0.1-0.2-0.2V190.2z"/>
			<path class="st1" d="M250.5,204.6c-0.1,0-0.2-0.1-0.2-0.2v-6c0-0.8-0.2-1.5-0.6-1.9s-1-0.7-1.7-0.7c-0.7,0-1.3,0.2-1.7,0.7
				s-0.7,1.1-0.7,1.8v6.1c0,0.1-0.1,0.2-0.2,0.2H244c-0.1,0-0.2-0.1-0.2-0.2v-9.8c0-0.1,0.1-0.2,0.2-0.2h1.4c0.1,0,0.2,0.1,0.2,0.2
				v0.9h0c0.2-0.4,0.6-0.7,1.1-1c0.5-0.3,1.1-0.4,1.8-0.4c1.1,0,2,0.4,2.6,1s0.9,1.6,0.9,2.8v6.4c0,0.1-0.1,0.2-0.2,0.2H250.5z"/>
			<path class="st1" d="M256,204.6c-0.1,0-0.2-0.1-0.2-0.2v-8.5c0-0.1,0-0.1-0.1-0.1h-0.9c-0.1,0-0.2-0.1-0.2-0.2v-1
				c0-0.1,0.1-0.2,0.2-0.2h0.9c0.1,0,0.1,0,0.1-0.1v-0.9c0-1.2,0.3-2.1,0.8-2.6c0.5-0.5,1.3-0.7,2.4-0.7h0.8c0.1,0,0.2,0.1,0.2,0.2
				v1.2c0,0.1-0.1,0.2-0.2,0.2h-0.6c-0.3,0-0.6,0-0.8,0.1c-0.2,0-0.4,0.1-0.5,0.2s-0.2,0.3-0.2,0.5c0,0.2-0.1,0.5-0.1,0.8v1
				c0,0.1,0,0.1,0.1,0.1h2c0.1,0,0.2,0.1,0.2,0.2v1c0,0.1-0.1,0.2-0.2,0.2h-2c-0.1,0-0.1,0-0.1,0.1v8.5c0,0.1-0.1,0.2-0.2,0.2H256z"
				/>
			<path class="st1" d="M266,204.8c-1,0-1.9-0.2-2.6-0.7c-0.7-0.5-1.2-1.2-1.5-2c-0.1-0.4-0.2-0.7-0.3-1.1c-0.1-0.4-0.1-0.9-0.1-1.5
				s0-1.1,0.1-1.5c0.1-0.4,0.1-0.8,0.3-1.1c0.3-0.9,0.8-1.6,1.5-2c0.7-0.5,1.6-0.7,2.6-0.7c1,0,1.9,0.2,2.6,0.7
				c0.7,0.5,1.2,1.2,1.5,2c0.1,0.4,0.2,0.7,0.3,1.1c0.1,0.4,0.1,0.9,0.1,1.5s0,1.1-0.1,1.5c-0.1,0.4-0.1,0.8-0.3,1.1
				c-0.3,0.9-0.8,1.5-1.5,2C267.8,204.6,267,204.8,266,204.8z M266,203.2c0.6,0,1.1-0.1,1.5-0.4s0.7-0.7,0.9-1.2
				c0.1-0.3,0.1-0.6,0.2-0.9c0-0.3,0.1-0.7,0.1-1.2c0-0.5,0-0.9-0.1-1.2c0-0.3-0.1-0.6-0.2-0.9c-0.2-0.5-0.5-0.9-0.9-1.2
				s-0.9-0.4-1.5-0.4c-0.6,0-1.1,0.1-1.5,0.4c-0.4,0.3-0.7,0.7-0.9,1.2c-0.1,0.3-0.1,0.6-0.2,0.9c0,0.3-0.1,0.7-0.1,1.2
				c0,0.5,0,0.9,0.1,1.2c0,0.3,0.1,0.6,0.2,0.9c0.2,0.5,0.5,0.9,0.9,1.2C264.9,203,265.4,203.2,266,203.2z"/>
			<path class="st1" d="M273.5,204.6c-0.1,0-0.2-0.1-0.2-0.2v-9.8c0-0.1,0.1-0.2,0.2-0.2h1.4c0.1,0,0.2,0.1,0.2,0.2v1h0
				c0.2-0.4,0.6-0.8,1-1.1c0.5-0.3,1-0.4,1.7-0.4c0.4,0,0.8,0.1,1.2,0.2c0.4,0.1,0.7,0.3,0.9,0.6c0.1,0.1,0.1,0.2,0,0.3l-0.8,1
				c-0.1,0.1-0.2,0.1-0.3,0c-0.2-0.2-0.5-0.3-0.8-0.4s-0.5-0.1-0.8-0.1c-0.8,0-1.3,0.3-1.7,0.8c-0.3,0.5-0.5,1.3-0.5,2.2v5.6
				c0,0.1-0.1,0.2-0.2,0.2H273.5z"/>
			<path class="st1" d="M295.2,204.6c-0.1,0-0.2-0.1-0.2-0.2v-6c0-0.8-0.2-1.5-0.6-1.9s-1-0.7-1.7-0.7c-0.7,0-1.2,0.2-1.7,0.7
				s-0.7,1.1-0.7,1.8v6.1c0,0.1-0.1,0.2-0.2,0.2h-1.4c-0.1,0-0.2-0.1-0.2-0.2v-6c0-0.8-0.2-1.5-0.6-1.9s-1-0.7-1.7-0.7
				c-0.7,0-1.3,0.2-1.7,0.7s-0.7,1.1-0.7,1.8v6.1c0,0.1-0.1,0.2-0.2,0.2h-1.4c-0.1,0-0.2-0.1-0.2-0.2v-9.8c0-0.1,0.1-0.2,0.2-0.2
				h1.4c0.1,0,0.2,0.1,0.2,0.2v0.9h0c0.2-0.4,0.6-0.7,1.1-1c0.5-0.3,1.1-0.4,1.8-0.4s1.3,0.1,1.8,0.4s0.9,0.7,1.2,1.2h0
				c0.4-0.5,0.8-0.9,1.3-1.2s1.2-0.4,2-0.4c1.2,0,2.1,0.4,2.7,1s0.9,1.6,0.9,2.8v6.4c0,0.1-0.1,0.2-0.2,0.2H295.2z"/>
			<path class="st1" d="M306.3,204.6c-0.1,0-0.2-0.1-0.2-0.2v-0.9h0c-0.2,0.4-0.6,0.7-1.1,1c-0.5,0.3-1.1,0.4-1.9,0.4
				c-0.5,0-0.9-0.1-1.4-0.2s-0.8-0.3-1.1-0.6c-0.3-0.3-0.5-0.6-0.7-1s-0.3-0.8-0.3-1.4c0-1.1,0.4-1.9,1.1-2.4
				c0.7-0.5,1.7-0.8,2.9-0.8h2.3c0.1,0,0.1,0,0.1-0.1v-0.7c0-0.7-0.2-1.2-0.5-1.5c-0.3-0.3-1-0.5-1.9-0.5c-0.6,0-1.1,0.1-1.5,0.2
				c-0.4,0.1-0.7,0.3-1,0.5c-0.1,0.1-0.2,0.1-0.3,0l-0.6-1c-0.1-0.1,0-0.2,0-0.3c0.4-0.3,0.9-0.5,1.5-0.7c0.6-0.2,1.3-0.3,2-0.3
				c1.5,0,2.5,0.3,3.1,0.8c0.6,0.5,0.9,1.4,0.9,2.7v6.8c0,0.1-0.1,0.2-0.2,0.2H306.3z M303.5,203.3c0.8,0,1.5-0.2,1.9-0.5
				s0.7-0.8,0.7-1.5v-1.1c0-0.1,0-0.1-0.1-0.1h-2.1c-0.9,0-1.6,0.1-2,0.4c-0.4,0.3-0.6,0.7-0.6,1.3c0,0.5,0.2,0.9,0.6,1.2
				C302.3,203.1,302.8,203.3,303.5,203.3z"/>
			<path class="st1" d="M314.2,204.7c-1,0-1.7-0.2-2.1-0.7s-0.6-1.2-0.6-2.2v-5.9c0-0.1,0-0.1-0.1-0.1h-0.9c-0.1,0-0.2-0.1-0.2-0.2
				v-1c0-0.1,0.1-0.2,0.2-0.2h0.9c0.1,0,0.1,0,0.1-0.1v-2.9c0-0.1,0.1-0.2,0.2-0.2h1.4c0.1,0,0.2,0.1,0.2,0.2v2.9
				c0,0.1,0,0.1,0.1,0.1h1.6c0.1,0,0.2,0.1,0.2,0.2v1c0,0.1-0.1,0.2-0.2,0.2h-1.6c-0.1,0-0.1,0-0.1,0.1v5.8c0,0.5,0.1,0.9,0.3,1
				c0.2,0.2,0.5,0.3,1,0.3h0.5c0.1,0,0.2,0.1,0.2,0.2v1.2c0,0.1-0.1,0.2-0.2,0.2H314.2z"/>
			<path class="st1" d="M318.2,192c-0.1,0-0.2-0.1-0.2-0.2v-1.6c0-0.1,0.1-0.2,0.2-0.2h1.5c0.1,0,0.2,0.1,0.2,0.2v1.6
				c0,0.1-0.1,0.2-0.2,0.2H318.2z M318.2,204.6c-0.1,0-0.2-0.1-0.2-0.2v-9.8c0-0.1,0.1-0.2,0.2-0.2h1.4c0.1,0,0.2,0.1,0.2,0.2v9.8
				c0,0.1-0.1,0.2-0.2,0.2H318.2z"/>
			<path class="st1" d="M327.1,204.8c-1,0-1.9-0.2-2.6-0.7c-0.7-0.5-1.2-1.2-1.5-2c-0.1-0.4-0.2-0.7-0.3-1.1
				c-0.1-0.4-0.1-0.9-0.1-1.5s0-1.1,0.1-1.5c0.1-0.4,0.1-0.8,0.3-1.1c0.3-0.9,0.8-1.6,1.5-2c0.7-0.5,1.6-0.7,2.6-0.7
				s1.9,0.2,2.6,0.7s1.2,1.2,1.5,2c0.1,0.4,0.2,0.7,0.3,1.1c0.1,0.4,0.1,0.9,0.1,1.5s0,1.1-0.1,1.5c-0.1,0.4-0.1,0.8-0.3,1.1
				c-0.3,0.9-0.8,1.5-1.5,2S328.1,204.8,327.1,204.8z M327.1,203.2c0.6,0,1.1-0.1,1.5-0.4s0.7-0.7,0.9-1.2c0.1-0.3,0.1-0.6,0.2-0.9
				c0-0.3,0.1-0.7,0.1-1.2c0-0.5,0-0.9-0.1-1.2c0-0.3-0.1-0.6-0.2-0.9c-0.2-0.5-0.5-0.9-0.9-1.2s-0.9-0.4-1.5-0.4s-1.1,0.1-1.5,0.4
				s-0.7,0.7-0.9,1.2c-0.1,0.3-0.1,0.6-0.2,0.9c0,0.3-0.1,0.7-0.1,1.2c0,0.5,0,0.9,0.1,1.2c0,0.3,0.1,0.6,0.2,0.9
				c0.2,0.5,0.5,0.9,0.9,1.2S326.5,203.2,327.1,203.2z"/>
			<path class="st1" d="M341,204.6c-0.1,0-0.2-0.1-0.2-0.2v-6c0-0.8-0.2-1.5-0.6-1.9s-1-0.7-1.7-0.7c-0.7,0-1.3,0.2-1.7,0.7
				s-0.7,1.1-0.7,1.8v6.1c0,0.1-0.1,0.2-0.2,0.2h-1.4c-0.1,0-0.2-0.1-0.2-0.2v-9.8c0-0.1,0.1-0.2,0.2-0.2h1.4c0.1,0,0.2,0.1,0.2,0.2
				v0.9h0c0.2-0.4,0.6-0.7,1.1-1c0.5-0.3,1.1-0.4,1.8-0.4c1.1,0,2,0.4,2.6,1s0.9,1.6,0.9,2.8v6.4c0,0.1-0.1,0.2-0.2,0.2H341z"/>
			<path class="st1" d="M355.6,204.8c-0.5,0-1,0-1.5-0.1c-0.5-0.1-1-0.2-1.4-0.4c-0.4-0.2-0.8-0.4-1.2-0.6c-0.4-0.2-0.7-0.5-1-0.7
				c-0.1-0.1-0.1-0.2,0-0.3l0.9-1.1c0.1-0.1,0.2-0.1,0.3,0c0.5,0.4,1.1,0.7,1.8,1c0.7,0.3,1.5,0.5,2.3,0.5c1,0,1.8-0.2,2.4-0.7
				s0.8-1.1,0.8-1.8c0-0.3,0-0.6-0.1-0.9c-0.1-0.3-0.3-0.5-0.5-0.7c-0.2-0.2-0.5-0.4-0.9-0.5c-0.4-0.1-0.9-0.2-1.5-0.3l-0.7-0.1
				c-2.9-0.4-4.3-1.7-4.3-4c0-0.6,0.1-1.2,0.3-1.8c0.2-0.5,0.5-1,1-1.3s0.9-0.7,1.5-0.9c0.6-0.2,1.2-0.3,2-0.3
				c0.9,0,1.7,0.1,2.5,0.4c0.8,0.2,1.4,0.6,2,1c0.1,0.1,0.1,0.2,0,0.3l-0.7,1.2c-0.1,0.1-0.2,0.1-0.3,0c-0.6-0.4-1.2-0.6-1.7-0.8
				c-0.6-0.2-1.1-0.3-1.8-0.3c-0.9,0-1.6,0.2-2.1,0.7c-0.5,0.4-0.7,1-0.7,1.7c0,0.6,0.2,1.1,0.7,1.5c0.5,0.4,1.2,0.7,2.4,0.8
				l0.7,0.1c1.4,0.2,2.5,0.6,3.2,1.3c0.7,0.7,1.1,1.6,1.1,2.8c0,0.6-0.1,1.2-0.3,1.8c-0.2,0.5-0.6,1-1,1.4c-0.4,0.4-1,0.7-1.7,0.9
				C357.3,204.7,356.5,204.8,355.6,204.8z"/>
			<path class="st1" d="M363.2,199.5c0-0.6,0-1.1,0.1-1.5c0.1-0.4,0.1-0.8,0.2-1.1c0.3-0.9,0.8-1.6,1.5-2.1c0.7-0.5,1.6-0.7,2.5-0.7
				c0.8,0,1.5,0.2,2.1,0.5c0.6,0.3,1.1,0.7,1.4,1.3c0.1,0.1,0,0.2-0.1,0.3l-0.9,0.8c-0.1,0.1-0.2,0.1-0.3,0
				c-0.3-0.4-0.6-0.6-0.9-0.8c-0.3-0.2-0.7-0.3-1.3-0.3c-0.6,0-1,0.1-1.4,0.4c-0.4,0.3-0.7,0.7-0.9,1.2c-0.1,0.3-0.1,0.6-0.2,0.9
				c0,0.3-0.1,0.7-0.1,1.2c0,0.5,0,0.9,0.1,1.2c0,0.3,0.1,0.6,0.2,0.9c0.2,0.5,0.5,0.9,0.9,1.2c0.4,0.3,0.9,0.4,1.4,0.4
				c0.5,0,0.9-0.1,1.3-0.3s0.6-0.5,0.9-0.8c0.1-0.1,0.2-0.1,0.3,0l0.9,0.8c0.1,0.1,0.1,0.2,0.1,0.3c-0.4,0.5-0.9,1-1.4,1.3
				c-0.6,0.3-1.3,0.5-2.1,0.5c-1,0-1.8-0.2-2.5-0.7c-0.7-0.5-1.2-1.2-1.5-2.1c-0.1-0.3-0.2-0.7-0.2-1.1
				C363.2,200.5,363.2,200,363.2,199.5z"/>
			<path class="st1" d="M374.1,192c-0.1,0-0.2-0.1-0.2-0.2v-1.6c0-0.1,0.1-0.2,0.2-0.2h1.5c0.1,0,0.2,0.1,0.2,0.2v1.6
				c0,0.1-0.1,0.2-0.2,0.2H374.1z M374.1,204.6c-0.1,0-0.2-0.1-0.2-0.2v-9.8c0-0.1,0.1-0.2,0.2-0.2h1.4c0.1,0,0.2,0.1,0.2,0.2v9.8
				c0,0.1-0.1,0.2-0.2,0.2H374.1z"/>
			<path class="st1" d="M383.1,204.8c-1,0-1.9-0.2-2.6-0.7c-0.7-0.5-1.2-1.2-1.5-2.1c-0.1-0.3-0.2-0.7-0.3-1.1
				c-0.1-0.4-0.1-0.9-0.1-1.5s0-1.1,0.1-1.5c0-0.4,0.1-0.8,0.2-1.1c0.3-0.9,0.8-1.6,1.5-2.1c0.7-0.5,1.6-0.7,2.5-0.7
				c1,0,1.8,0.2,2.5,0.7c0.7,0.5,1.2,1.2,1.5,2c0.1,0.2,0.1,0.3,0.1,0.5c0,0.2,0.1,0.4,0.1,0.6c0,0.2,0,0.5,0.1,0.8c0,0.3,0,0.6,0,1
				c0,0.1-0.1,0.2-0.2,0.2h-6.5c-0.1,0-0.1,0-0.1,0.1c0,0.3,0,0.5,0,0.7c0,0.2,0.1,0.4,0.1,0.5c0.2,0.6,0.5,1,1,1.3
				c0.4,0.3,1,0.4,1.6,0.4c0.6,0,1.1-0.1,1.6-0.3c0.4-0.2,0.8-0.5,1.1-0.8c0.1-0.1,0.2-0.1,0.3,0l0.9,0.8c0.1,0.1,0.1,0.2,0,0.3
				c-0.4,0.5-1,0.9-1.6,1.3C384.8,204.7,384,204.8,383.1,204.8z M385.3,198.6c0.1,0,0.1,0,0.1-0.1c0-0.5-0.1-0.8-0.2-1.1
				c-0.2-0.5-0.5-0.9-0.9-1.2c-0.4-0.3-0.9-0.4-1.5-0.4c-0.6,0-1.1,0.1-1.5,0.4c-0.4,0.3-0.7,0.7-0.9,1.2c-0.1,0.3-0.2,0.7-0.2,1.1
				c0,0.1,0,0.1,0.1,0.1H385.3z"/>
			<path class="st1" d="M396.8,204.6c-0.1,0-0.2-0.1-0.2-0.2v-6c0-0.8-0.2-1.5-0.6-1.9c-0.4-0.5-1-0.7-1.7-0.7
				c-0.7,0-1.3,0.2-1.7,0.7s-0.7,1.1-0.7,1.8v6.1c0,0.1-0.1,0.2-0.2,0.2h-1.4c-0.1,0-0.2-0.1-0.2-0.2v-9.8c0-0.1,0.1-0.2,0.2-0.2
				h1.4c0.1,0,0.2,0.1,0.2,0.2v0.9h0c0.2-0.4,0.6-0.7,1.1-1c0.5-0.3,1.1-0.4,1.8-0.4c1.1,0,2,0.4,2.6,1c0.6,0.7,0.9,1.6,0.9,2.8v6.4
				c0,0.1-0.1,0.2-0.2,0.2H396.8z"/>
			<path class="st1" d="M401.2,199.5c0-0.6,0-1.1,0.1-1.5c0.1-0.4,0.1-0.8,0.2-1.1c0.3-0.9,0.8-1.6,1.5-2.1c0.7-0.5,1.6-0.7,2.5-0.7
				c0.8,0,1.5,0.2,2.1,0.5c0.6,0.3,1.1,0.7,1.4,1.3c0.1,0.1,0,0.2-0.1,0.3l-0.9,0.8c-0.1,0.1-0.2,0.1-0.3,0
				c-0.3-0.4-0.6-0.6-0.9-0.8c-0.3-0.2-0.7-0.3-1.3-0.3c-0.6,0-1,0.1-1.4,0.4c-0.4,0.3-0.7,0.7-0.9,1.2c-0.1,0.3-0.1,0.6-0.2,0.9
				c0,0.3-0.1,0.7-0.1,1.2c0,0.5,0,0.9,0.1,1.2c0,0.3,0.1,0.6,0.2,0.9c0.2,0.5,0.5,0.9,0.9,1.2c0.4,0.3,0.9,0.4,1.4,0.4
				c0.5,0,0.9-0.1,1.3-0.3s0.6-0.5,0.9-0.8c0.1-0.1,0.2-0.1,0.3,0l0.9,0.8c0.1,0.1,0.1,0.2,0.1,0.3c-0.4,0.5-0.9,1-1.4,1.3
				c-0.6,0.3-1.3,0.5-2.1,0.5c-1,0-1.8-0.2-2.5-0.7c-0.7-0.5-1.2-1.2-1.5-2.1c-0.1-0.3-0.2-0.7-0.2-1.1
				C401.2,200.5,401.2,200,401.2,199.5z"/>
			<path class="st1" d="M415.8,204.8c-1,0-1.9-0.2-2.6-0.7c-0.7-0.5-1.2-1.2-1.5-2.1c-0.1-0.3-0.2-0.7-0.3-1.1
				c-0.1-0.4-0.1-0.9-0.1-1.5s0-1.1,0.1-1.5c0-0.4,0.1-0.8,0.2-1.1c0.3-0.9,0.8-1.6,1.5-2.1c0.7-0.5,1.6-0.7,2.5-0.7
				c1,0,1.8,0.2,2.5,0.7c0.7,0.5,1.2,1.2,1.5,2c0.1,0.2,0.1,0.3,0.1,0.5c0,0.2,0.1,0.4,0.1,0.6c0,0.2,0,0.5,0.1,0.8c0,0.3,0,0.6,0,1
				c0,0.1-0.1,0.2-0.2,0.2h-6.5c-0.1,0-0.1,0-0.1,0.1c0,0.3,0,0.5,0,0.7c0,0.2,0.1,0.4,0.1,0.5c0.2,0.6,0.5,1,1,1.3
				c0.4,0.3,1,0.4,1.6,0.4c0.6,0,1.1-0.1,1.6-0.3c0.4-0.2,0.8-0.5,1.1-0.8c0.1-0.1,0.2-0.1,0.3,0l0.9,0.8c0.1,0.1,0.1,0.2,0,0.3
				c-0.4,0.5-1,0.9-1.6,1.3C417.5,204.7,416.7,204.8,415.8,204.8z M418,198.6c0.1,0,0.1,0,0.1-0.1c0-0.5-0.1-0.8-0.2-1.1
				c-0.2-0.5-0.5-0.9-0.9-1.2c-0.4-0.3-0.9-0.4-1.5-0.4c-0.6,0-1.1,0.1-1.5,0.4c-0.4,0.3-0.7,0.7-0.9,1.2c-0.1,0.3-0.2,0.7-0.2,1.1
				c0,0.1,0,0.1,0.1,0.1H418z"/>
			<path class="st1" d="M426.4,204.8c-0.5,0-1,0-1.4-0.1c-0.4-0.1-0.8-0.2-1.2-0.4c-0.3-0.2-0.7-0.3-0.9-0.5s-0.5-0.4-0.7-0.5
				c-0.1-0.1-0.1-0.2,0-0.3l0.9-0.9c0.1-0.1,0.2-0.1,0.3,0c0.4,0.3,0.9,0.6,1.4,0.8s1.1,0.3,1.8,0.3c0.8,0,1.3-0.1,1.7-0.4
				c0.4-0.3,0.6-0.7,0.6-1.1c0-0.4-0.1-0.7-0.4-1s-0.8-0.4-1.6-0.5l-1.1-0.1c-1-0.1-1.8-0.4-2.3-0.9s-0.8-1.1-0.8-2
				c0-1,0.3-1.8,1-2.3c0.7-0.5,1.6-0.8,2.8-0.8c0.8,0,1.4,0.1,2.1,0.3s1.1,0.5,1.6,0.8c0.1,0.1,0.1,0.2,0,0.3l-0.7,0.9
				c-0.1,0.1-0.2,0.1-0.3,0c-0.3-0.2-0.7-0.4-1.2-0.6c-0.5-0.2-1-0.3-1.5-0.3c-0.6,0-1.1,0.1-1.5,0.4c-0.3,0.3-0.5,0.6-0.5,1
				s0.1,0.7,0.4,1c0.3,0.2,0.8,0.4,1.6,0.4l1.1,0.1c1,0.1,1.8,0.4,2.3,0.9c0.5,0.5,0.8,1.2,0.8,2c0,1-0.4,1.8-1.1,2.4
				C428.8,204.5,427.8,204.8,426.4,204.8z"/>
		</g>
	</g>
	<g>
		<g class="st0">
			<path class="st1" d="M6.6,242.6c0-0.1,0.1-0.2,0.2-0.2h5.1c1.5,0,2.5,0.3,3.3,1c0.7,0.7,1.1,1.6,1.1,2.8c0,0.8-0.2,1.5-0.5,2
				c-0.4,0.5-0.8,0.9-1.4,1.1v0c0.2,0.1,0.5,0.2,0.8,0.4c0.3,0.2,0.5,0.4,0.7,0.7c0.2,0.3,0.4,0.6,0.5,1c0.1,0.4,0.2,0.8,0.2,1.3
				c0,1.4-0.4,2.4-1.2,3.1c-0.8,0.7-2,1-3.5,1h-5c-0.1,0-0.2-0.1-0.2-0.2V242.6z M11.9,248.7c0.8,0,1.4-0.2,1.9-0.6
				c0.4-0.4,0.7-1,0.7-1.6c0-0.7-0.2-1.2-0.7-1.7c-0.4-0.4-1.1-0.6-1.9-0.6H8.6c-0.1,0-0.1,0-0.1,0.1v4.3c0,0.1,0,0.1,0.1,0.1H11.9z
				 M8.5,255c0,0.1,0,0.1,0.1,0.1H12c0.9,0,1.5-0.2,2-0.6c0.5-0.4,0.7-1,0.7-1.7s-0.2-1.3-0.7-1.7s-1.1-0.6-2-0.6H8.6
				c-0.1,0-0.1,0-0.1,0.1V255z"/>
			<path class="st1" d="M25.8,256.9c-0.1,0-0.2-0.1-0.2-0.2v-1h0c-0.3,0.4-0.6,0.8-1.1,1c-0.5,0.3-1,0.4-1.7,0.4
				c-1.1,0-2-0.4-2.6-1.1c-0.6-0.7-0.9-1.6-0.9-2.8v-6.3c0-0.1,0.1-0.2,0.2-0.2h1.4c0.1,0,0.2,0.1,0.2,0.2v5.9
				c0,0.8,0.2,1.5,0.6,1.9s0.9,0.7,1.7,0.7c0.7,0,1.2-0.2,1.7-0.7s0.6-1.1,0.6-1.8v-6c0-0.1,0.1-0.2,0.2-0.2h1.4
				c0.1,0,0.2,0.1,0.2,0.2v9.7c0,0.1-0.1,0.2-0.2,0.2H25.8z"/>
			<path class="st1" d="M34.3,257.1c-0.5,0-1,0-1.4-0.1c-0.4-0.1-0.8-0.2-1.2-0.4c-0.3-0.1-0.7-0.3-0.9-0.5
				c-0.3-0.2-0.5-0.4-0.7-0.5c-0.1-0.1-0.1-0.2,0-0.3l0.9-0.9c0.1-0.1,0.2-0.1,0.3,0c0.4,0.3,0.8,0.6,1.4,0.8
				c0.5,0.2,1.1,0.3,1.8,0.3c0.8,0,1.3-0.1,1.7-0.4c0.4-0.3,0.6-0.7,0.6-1.1c0-0.4-0.1-0.7-0.4-0.9c-0.3-0.2-0.8-0.4-1.6-0.5
				l-1.1-0.1c-1-0.1-1.8-0.4-2.3-0.9s-0.8-1.1-0.8-2c0-1,0.3-1.7,1-2.3s1.6-0.8,2.8-0.8c0.8,0,1.4,0.1,2,0.3
				c0.6,0.2,1.1,0.5,1.6,0.8c0.1,0.1,0.1,0.2,0,0.3l-0.7,0.9c-0.1,0.1-0.2,0.1-0.3,0c-0.3-0.2-0.7-0.4-1.2-0.6s-1-0.3-1.5-0.3
				c-0.6,0-1.1,0.1-1.4,0.4c-0.3,0.3-0.5,0.6-0.5,1c0,0.4,0.1,0.7,0.4,0.9c0.3,0.2,0.8,0.4,1.6,0.4l1.1,0.1c1,0.1,1.8,0.4,2.3,0.9
				s0.8,1.2,0.8,2c0,1-0.4,1.8-1.1,2.4C36.7,256.8,35.7,257.1,34.3,257.1z"/>
			<path class="st1" d="M41.4,244.4c-0.1,0-0.2-0.1-0.2-0.2v-1.6c0-0.1,0.1-0.2,0.2-0.2h1.4c0.1,0,0.2,0.1,0.2,0.2v1.6
				c0,0.1-0.1,0.2-0.2,0.2H41.4z M41.5,256.9c-0.1,0-0.2-0.1-0.2-0.2v-9.7c0-0.1,0.1-0.2,0.2-0.2h1.4c0.1,0,0.2,0.1,0.2,0.2v9.7
				c0,0.1-0.1,0.2-0.2,0.2H41.5z"/>
			<path class="st1" d="M53.1,256.9c-0.1,0-0.2-0.1-0.2-0.2v-5.9c0-0.8-0.2-1.5-0.6-1.9c-0.4-0.5-0.9-0.7-1.7-0.7
				c-0.7,0-1.3,0.2-1.7,0.7c-0.4,0.4-0.6,1.1-0.6,1.8v6.1c0,0.1-0.1,0.2-0.2,0.2h-1.4c-0.1,0-0.2-0.1-0.2-0.2v-9.7
				c0-0.1,0.1-0.2,0.2-0.2h1.4c0.1,0,0.2,0.1,0.2,0.2v0.9h0c0.2-0.4,0.6-0.7,1.1-1c0.5-0.3,1.1-0.4,1.8-0.4c1.1,0,2,0.3,2.6,1
				c0.6,0.7,0.9,1.6,0.9,2.8v6.4c0,0.1-0.1,0.2-0.2,0.2H53.1z"/>
			<path class="st1" d="M61.9,257.1c-1,0-1.9-0.2-2.6-0.7c-0.7-0.5-1.2-1.2-1.5-2c-0.1-0.3-0.2-0.7-0.3-1.1
				c-0.1-0.4-0.1-0.9-0.1-1.5s0-1.1,0.1-1.5s0.1-0.8,0.2-1.1c0.3-0.9,0.8-1.6,1.5-2c0.7-0.5,1.5-0.7,2.5-0.7c1,0,1.8,0.2,2.5,0.7
				c0.7,0.5,1.2,1.2,1.5,2c0.1,0.2,0.1,0.3,0.1,0.5c0,0.2,0.1,0.4,0.1,0.6c0,0.2,0,0.5,0.1,0.8s0,0.6,0,1c0,0.1-0.1,0.2-0.2,0.2
				h-6.4c-0.1,0-0.1,0-0.1,0.1c0,0.3,0,0.5,0,0.7c0,0.2,0.1,0.4,0.1,0.5c0.2,0.6,0.5,1,1,1.3c0.4,0.3,1,0.4,1.6,0.4
				c0.6,0,1.1-0.1,1.6-0.3c0.4-0.2,0.8-0.5,1.1-0.8c0.1-0.1,0.2-0.1,0.3,0l0.9,0.8c0.1,0.1,0.1,0.2,0,0.3c-0.4,0.5-1,0.9-1.6,1.3
				S62.7,257.1,61.9,257.1z M64.1,250.9c0.1,0,0.1,0,0.1-0.1c0-0.5,0-0.8-0.1-1.1c-0.2-0.5-0.5-0.9-0.9-1.2
				c-0.4-0.3-0.9-0.4-1.5-0.4c-0.6,0-1.1,0.1-1.5,0.4c-0.4,0.3-0.7,0.7-0.9,1.2c-0.1,0.3-0.1,0.7-0.1,1.1c0,0.1,0,0.1,0.1,0.1H64.1z
				"/>
			<path class="st1" d="M72.4,257.1c-0.5,0-1,0-1.4-0.1c-0.4-0.1-0.8-0.2-1.2-0.4c-0.3-0.1-0.7-0.3-0.9-0.5
				c-0.3-0.2-0.5-0.4-0.7-0.5c-0.1-0.1-0.1-0.2,0-0.3l0.9-0.9c0.1-0.1,0.2-0.1,0.3,0c0.4,0.3,0.8,0.6,1.4,0.8
				c0.5,0.2,1.1,0.3,1.8,0.3c0.8,0,1.3-0.1,1.7-0.4c0.4-0.3,0.6-0.7,0.6-1.1c0-0.4-0.1-0.7-0.4-0.9c-0.3-0.2-0.8-0.4-1.6-0.5
				l-1.1-0.1c-1-0.1-1.8-0.4-2.3-0.9s-0.8-1.1-0.8-2c0-1,0.3-1.7,1-2.3s1.6-0.8,2.8-0.8c0.8,0,1.4,0.1,2,0.3
				c0.6,0.2,1.1,0.5,1.6,0.8c0.1,0.1,0.1,0.2,0,0.3l-0.7,0.9c-0.1,0.1-0.2,0.1-0.3,0c-0.3-0.2-0.7-0.4-1.2-0.6s-1-0.3-1.5-0.3
				c-0.6,0-1.1,0.1-1.4,0.4c-0.3,0.3-0.5,0.6-0.5,1c0,0.4,0.1,0.7,0.4,0.9c0.3,0.2,0.8,0.4,1.6,0.4l1.1,0.1c1,0.1,1.8,0.4,2.3,0.9
				s0.8,1.2,0.8,2c0,1-0.4,1.8-1.1,2.4C74.8,256.8,73.8,257.1,72.4,257.1z"/>
			<path class="st1" d="M82.8,257.1c-0.5,0-1,0-1.4-0.1c-0.4-0.1-0.8-0.2-1.2-0.4c-0.3-0.1-0.7-0.3-0.9-0.5
				c-0.3-0.2-0.5-0.4-0.7-0.5c-0.1-0.1-0.1-0.2,0-0.3l0.9-0.9c0.1-0.1,0.2-0.1,0.3,0c0.4,0.3,0.8,0.6,1.4,0.8
				c0.5,0.2,1.1,0.3,1.8,0.3c0.8,0,1.3-0.1,1.7-0.4c0.4-0.3,0.6-0.7,0.6-1.1c0-0.4-0.1-0.7-0.4-0.9c-0.3-0.2-0.8-0.4-1.6-0.5
				l-1.1-0.1c-1-0.1-1.8-0.4-2.3-0.9s-0.8-1.1-0.8-2c0-1,0.3-1.7,1-2.3s1.6-0.8,2.8-0.8c0.8,0,1.4,0.1,2,0.3
				c0.6,0.2,1.1,0.5,1.6,0.8c0.1,0.1,0.1,0.2,0,0.3l-0.7,0.9c-0.1,0.1-0.2,0.1-0.3,0c-0.3-0.2-0.7-0.4-1.2-0.6s-1-0.3-1.5-0.3
				c-0.6,0-1.1,0.1-1.4,0.4c-0.3,0.3-0.5,0.6-0.5,1c0,0.4,0.1,0.7,0.4,0.9c0.3,0.2,0.8,0.4,1.6,0.4l1.1,0.1c1,0.1,1.8,0.4,2.3,0.9
				s0.8,1.2,0.8,2c0,1-0.4,1.8-1.1,2.4C85.2,256.8,84.2,257.1,82.8,257.1z"/>
			<path class="st1" d="M99.9,257.1c-1.6,0-2.9-0.4-3.8-1.3c-0.9-0.9-1.4-2.2-1.4-3.9v-9.2c0-0.1,0.1-0.2,0.2-0.2h1.5
				c0.1,0,0.2,0.1,0.2,0.2v9.2c0,1.2,0.3,2.1,0.9,2.6c0.6,0.6,1.4,0.9,2.3,0.9c1,0,1.7-0.3,2.3-0.9c0.6-0.6,0.9-1.5,0.9-2.6v-9.2
				c0-0.1,0.1-0.2,0.2-0.2h1.5c0.1,0,0.2,0.1,0.2,0.2v9.2c0,1.7-0.5,3-1.4,3.9C102.7,256.6,101.5,257.1,99.9,257.1z"/>
			<path class="st1" d="M115,256.9c-0.1,0-0.2-0.1-0.2-0.2v-5.9c0-0.8-0.2-1.5-0.6-1.9c-0.4-0.5-0.9-0.7-1.7-0.7
				c-0.7,0-1.3,0.2-1.7,0.7c-0.4,0.4-0.6,1.1-0.6,1.8v6.1c0,0.1-0.1,0.2-0.2,0.2h-1.4c-0.1,0-0.2-0.1-0.2-0.2v-9.7
				c0-0.1,0.1-0.2,0.2-0.2h1.4c0.1,0,0.2,0.1,0.2,0.2v0.9h0c0.2-0.4,0.6-0.7,1.1-1c0.5-0.3,1.1-0.4,1.8-0.4c1.1,0,2,0.3,2.6,1
				c0.6,0.7,0.9,1.6,0.9,2.8v6.4c0,0.1-0.1,0.2-0.2,0.2H115z"/>
			<path class="st1" d="M120.1,244.4c-0.1,0-0.2-0.1-0.2-0.2v-1.6c0-0.1,0.1-0.2,0.2-0.2h1.4c0.1,0,0.2,0.1,0.2,0.2v1.6
				c0,0.1-0.1,0.2-0.2,0.2H120.1z M120.2,256.9c-0.1,0-0.2-0.1-0.2-0.2v-9.7c0-0.1,0.1-0.2,0.2-0.2h1.4c0.1,0,0.2,0.1,0.2,0.2v9.7
				c0,0.1-0.1,0.2-0.2,0.2H120.2z"/>
			<path class="st1" d="M128.2,257c-1,0-1.7-0.2-2.1-0.7c-0.4-0.5-0.6-1.2-0.6-2.2v-5.8c0-0.1,0-0.1-0.1-0.1h-0.8
				c-0.1,0-0.2-0.1-0.2-0.2v-1c0-0.1,0.1-0.2,0.2-0.2h0.8c0.1,0,0.1,0,0.1-0.1v-2.9c0-0.1,0.1-0.2,0.2-0.2h1.4
				c0.1,0,0.2,0.1,0.2,0.2v2.9c0,0.1,0,0.1,0.1,0.1h1.6c0.1,0,0.2,0.1,0.2,0.2v1c0,0.1-0.1,0.2-0.2,0.2h-1.6c-0.1,0-0.1,0-0.1,0.1
				v5.8c0,0.5,0.1,0.9,0.3,1c0.2,0.2,0.5,0.3,1,0.3h0.4c0.1,0,0.2,0.1,0.2,0.2v1.2c0,0.1-0.1,0.2-0.2,0.2H128.2z"/>
		</g>
	</g>
	<rect x="3.8" y="217.5" class="st1" width="442.3" height="3.5"/>
</g>
<g id="surface1">
	<g>
		<g>
			<defs>
				<rect id="SVGID_1_" y="0" width="450.6" height="173.1"/>
			</defs>
			<clipPath id="SVGID_00000065056586181407975440000006935355592070794167_">
				<use xlink:href="#SVGID_1_"  style="overflow:visible;"/>
			</clipPath>
			<g style="clip-path:url(#SVGID_00000065056586181407975440000006935355592070794167_);">
				<path class="st3" d="M427.9,107.2c0,23.8-19.4,43.2-43.2,43.2c-23.8,0-43.2-19.4-43.2-43.2V30.4c15-3.5,29.6-8.7,43.2-15.2
					c13.6,6.5,28.2,11.6,43.2,15.2V107.2z M0,0v173.1h384.2l0,0c0.1,0,0.3,0,0.4,0c36.4,0,66-29.5,66-66V0"/>
			</g>
		</g>
	</g>
	<path class="st1" d="M394.2,33c0,0-3.5,0.8-6.2,3.5c8-2,16.2,3.1,16.2,3.1s-6.6-1.9-13.4,0.7c10,2.2,13.3,11.1,13.3,11.1
		s-6.1-6-14.1-6.9c4.3,4,4.6,11.5,4.6,11.5s-3.1-6.9-8.4-9.5c0,1.8-0.1,3.8-0.1,6.1c0,7.2,0.2,13.6,0.5,18.7c1.1-0.5,2-0.5,2-0.5
		s-0.9,0.8-1.8,2.1c1.8-0.3,3.4,0,3.4,0s0,0,0,0.1c-1.8,0.7-3.7,1.6-5.6,2.7c-2.1-1.2-4.2-2.1-6.1-2.9c0-0.1-0.1-0.1-0.1-0.1
		s1.8-0.4,3.7,0.1c-0.8-1.3-1.7-2-1.7-2s1,0,2.2,0.6c0.3-5.1,0.5-11.6,0.5-18.8c0-2.3,0-4.3-0.1-6.1c-5.3,2.6-8.4,9.5-8.4,9.5
		s0.3-7.4,4.6-11.5c-8,1-14.1,6.9-14.1,6.9s3.3-8.8,13.3-11.1c-6.8-2.6-13.4-0.7-13.4-0.7s8.2-5.1,16.2-3.1
		c-2.7-2.7-6.2-3.5-6.2-3.5s4.4-0.6,7.8,0.9c0.4-2.1,1.2-4.6,1.7-5.5c0.5,0.9,1.3,3.3,1.7,5.5C389.8,32.4,394.2,33,394.2,33
		 M410.8,74.2c-4.1,0.1-11,0.7-22.2,8.4c-0.4,0.3-0.8,0.6-1.2,0.8c1.8,1.2,3.2,2.2,4.4,3c0.8-0.6,1.5-0.8,1.9-0.6
		c0.1,0.1,0.2,0.2,0.2,0.4c0,0.3-0.1,0.8-0.5,1.3c2.1,1.4,3.1,2.1,3.5,2.4c0.3-0.5,1-0.8,1.7-0.8c1.1,0,1.9,0.7,1.9,1.6
		c0,0.6-0.4,1.1-0.9,1.3c-0.3,0.2-0.8,0.3-1.3,0.3c-2.1,0-4.7-1.5-6.7-2.9c-0.7,0.5-1.3,0.8-1.8,0.8c-0.2,0-0.3,0-0.4-0.1
		s-0.2-0.2-0.2-0.4c0-0.4,0.2-0.9,0.6-1.5c-0.2-0.1-0.4-0.2-0.5-0.3l0,0c-1.3-0.8-2.8-1.8-4.6-3c-1.8,1.2-3.3,2.2-4.6,3l0,0
		c-0.2,0.1-0.3,0.2-0.5,0.3c0.4,0.6,0.6,1.1,0.6,1.5c0,0.2-0.1,0.3-0.2,0.4s-0.2,0.1-0.4,0.1c-0.4,0-1.1-0.3-1.8-0.8
		c-2.1,1.3-4.6,2.9-6.7,2.9c-0.5,0-0.9-0.1-1.3-0.3c-0.6-0.3-0.9-0.8-0.9-1.4c0-0.9,0.8-1.6,1.9-1.6c0.7,0,1.3,0.3,1.7,0.8
		c0.4-0.3,1.4-1,3.5-2.4c-0.3-0.5-0.5-1-0.5-1.3c0-0.2,0.1-0.3,0.2-0.4c0.4-0.2,1.1,0,1.9,0.6c1.2-0.8,2.7-1.8,4.4-3
		c-0.4-0.3-0.8-0.6-1.2-0.8c-11.3-7.7-18.1-8.3-22.2-8.4c0,0,11.4-2.7,25.3,6.9c0.3,0.2,0.6,0.4,0.8,0.6c0.3-0.2,0.5-0.4,0.8-0.6
		C399.4,71.6,410.8,74.2,410.8,74.2 M402.9,130.9c0,0-2.5-0.1-7.3-1.7c-4.5-1.5-8.6-0.3-11,2.5c-2.4-2.8-6.5-3.9-11-2.5
		c-4.8,1.6-7.3,1.7-7.3,1.7l-5.1-23.7c1.9,0.2,5.4,0.6,11.2-2.1c3.9-1.8,7.1-1.5,8.7-0.8s2.9,3.4,3.5,6.5c0,0,0,0,0,0.6
		c0-0.5,0-0.5,0-0.6c0.6-3.1,1.9-5.8,3.5-6.5s4.8-1,8.7,0.8c5.8,2.7,9.3,2.3,11.2,2.1L402.9,130.9z M341.4,30.4v76.8
		c0,23.8,19.4,43.2,43.2,43.2c23.8,0,43.2-19.4,43.2-43.2V30.4c-15-3.5-29.6-8.7-43.2-15.2C371,21.7,356.5,26.8,341.4,30.4"/>
	<path class="st3" d="M365.1,39.6c0,0,6.6-1.9,13.4,0.7c-10,2.2-13.3,11.1-13.3,11.1s6.1-6,14.1-6.9c-4.3,4-4.6,11.5-4.6,11.5
		s3.1-6.9,8.4-9.5c0,1.8,0.1,3.8,0.1,6.1c0,7.2-0.2,13.7-0.5,18.8c-1.2-0.5-2.2-0.6-2.2-0.6s0.9,0.7,1.7,2c-2-0.5-3.7-0.1-3.7-0.1
		s0,0,0.1,0.1c2,0.8,4,1.7,6.1,2.9c1.9-1.1,3.8-2,5.6-2.7c0-0.1,0-0.1,0-0.1s-1.6-0.3-3.4,0c0.8-1.3,1.8-2.1,1.8-2.1s-0.9,0-2,0.5
		c-0.3-5.1-0.5-11.6-0.5-18.7c0-2.3,0-4.3,0.1-6.1c5.3,2.6,8.4,9.5,8.4,9.5s-0.3-7.4-4.6-11.5c8,1,14.1,6.9,14.1,6.9
		s-3.4-8.8-13.3-11.1c6.8-2.6,13.4-0.7,13.4-0.7s-8.2-5.1-16.2-3.1c2.7-2.7,6.2-3.5,6.2-3.5s-4.4-0.6-7.9,0.9
		c-0.5-2.1-1.2-4.6-1.7-5.5c-0.5,0.9-1.2,3.3-1.7,5.5c-3.5-1.4-7.8-0.9-7.8-0.9s3.5,0.8,6.2,3.5C373.3,34.5,365.1,39.6,365.1,39.6"
		/>
	<path class="st3" d="M398.6,89.3c-0.7,0-1.3,0.3-1.7,0.8c-0.5-0.3-1.4-1-3.5-2.4c0.3-0.5,0.5-1,0.5-1.3c0-0.2-0.1-0.3-0.2-0.4
		c-0.4-0.2-1.1,0-1.9,0.6c-1.2-0.8-2.7-1.8-4.4-3c0.4-0.3,0.8-0.6,1.2-0.8c11.3-7.7,18.1-8.3,22.2-8.4c0,0-11.4-2.7-25.3,6.9
		c-0.3,0.2-0.6,0.4-0.8,0.6c-0.3-0.2-0.5-0.4-0.8-0.6c-13.9-9.6-25.3-6.9-25.3-6.9c4.1,0.1,11,0.7,22.2,8.4c0.4,0.3,0.8,0.6,1.2,0.8
		c-1.8,1.2-3.2,2.2-4.4,3c-0.8-0.6-1.5-0.8-1.9-0.6c-0.1,0.1-0.2,0.2-0.2,0.4c0,0.3,0.1,0.8,0.5,1.3c-2.1,1.4-3.1,2.1-3.5,2.4
		c-0.4-0.5-1-0.8-1.7-0.8c-1.1,0-1.9,0.7-1.9,1.6c0,0.6,0.4,1.1,0.9,1.4c0.3,0.2,0.8,0.3,1.3,0.3c2.1,0,4.7-1.5,6.7-2.9
		c0.7,0.5,1.3,0.8,1.8,0.8c0.2,0,0.3,0,0.4-0.1s0.2-0.2,0.2-0.4c0-0.4-0.2-0.9-0.6-1.5c0.2-0.1,0.4-0.2,0.5-0.3l0,0
		c1.3-0.8,2.8-1.8,4.6-3c1.8,1.2,3.3,2.2,4.6,3l0,0c0.2,0.1,0.3,0.2,0.5,0.3c-0.4,0.6-0.6,1.1-0.6,1.5c0,0.2,0.1,0.3,0.2,0.4
		s0.2,0.1,0.4,0.1c0.4,0,1.1-0.3,1.8-0.8c2.1,1.3,4.6,2.9,6.7,2.9c0.5,0,0.9-0.1,1.3-0.3c0.5-0.3,0.9-0.8,0.9-1.3
		C400.5,90.1,399.6,89.4,398.6,89.3"/>
	<path class="st1" d="M379.9,118.4c-1,0-1.5-0.5-1.5-1.6s0.4-1.9,1.6-1.9c1.1,0,1.7,0.8,1.7,2.9
		C381.3,118.2,380.6,118.4,379.9,118.4 M380,113.5c-2.2,0-3.7,1.4-3.7,3.4c0,1.9,1.3,3,3.2,3c0.8,0,1.6-0.2,2.2-0.6
		c-0.2,1.7-0.7,2.8-2.6,2.8c-0.8,0-1.3-0.2-1.5-0.5h-0.8v1.6c0.6,0.2,1.3,0.4,2.2,0.4c3.2,0,4.9-1.9,4.9-5.2
		C383.9,115.1,382.2,113.5,380,113.5"/>
	<path class="st1" d="M370.8,115.1v1.5h0.6l1.2-0.6v7.5h2.2v-9.8h-1.5"/>
	<path class="st1" d="M388.3,117.2c-0.9,0-1.4,0.3-1.8,0.5l0,0v-2.3h4.3v-1.7H385v5.7h1.3c0.3-0.3,0.7-0.7,1.5-0.7s1.4,0.5,1.4,1.6
		s-0.8,1.7-1.9,1.7c-0.9,0-1.5-0.3-1.9-0.7h-0.8v1.5c0.7,0.4,1.4,0.7,2.7,0.7c2.4,0,4-1.2,4-3.3
		C391.4,118.1,390.1,117.2,388.3,117.2"/>
	<path class="st1" d="M391.7,115.4h5v0.1l-3.8,7.2v0.9h2.1l3.4-7.9v-1.9h-6.6"/>
	<path class="st3" d="M380,115c-1.1,0-1.6,0.8-1.6,1.9c0,1,0.6,1.6,1.5,1.6c0.7,0,1.4-0.2,1.8-0.5C381.6,115.8,381,115,380,115"/>
	<path class="st3" d="M398.3,115.5l-3.4,7.9h-2.1v-0.9l3.8-7.2v-0.1h-5v-1.7h6.6v2H398.3z M387.4,123.5c-1.3,0-2-0.3-2.7-0.7v-1.5
		h0.8c0.3,0.3,0.9,0.7,1.9,0.7c1.1,0,1.9-0.6,1.9-1.7s-0.6-1.6-1.4-1.6s-1.3,0.4-1.5,0.7H385v-5.7h5.9v1.7h-4.3v2.3l0,0
		c0.3-0.2,0.9-0.5,1.8-0.5c1.7,0,3,1,3,3.1C391.4,122.3,389.7,123.5,387.4,123.5 M379,123.5c-0.9,0-1.6-0.2-2.2-0.4v-1.6h0.8
		c0.2,0.2,0.7,0.5,1.5,0.5c1.8,0,2.4-1,2.6-2.8c-0.6,0.4-1.4,0.6-2.2,0.6c-1.9,0-3.2-1.1-3.2-3s1.5-3.4,3.7-3.4s3.9,1.6,3.9,4.8
		C383.9,121.7,382.1,123.5,379,123.5 M374.7,123.4h-2.2v-7.5l-1.2,0.6h-0.6V115l2.4-1.4h1.5v9.8H374.7z M396.8,105.1
		c-3.9-1.8-7.1-1.5-8.7-0.8s-2.8,3.4-3.5,6.5c0,0,0,0,0,0.6c0-0.5,0-0.5,0-0.6c-0.6-3.1-1.9-5.8-3.5-6.5s-4.8-1-8.7,0.8
		c-5.8,2.7-9.3,2.3-11.2,2.1l5.1,23.7c0,0,2.5-0.1,7.3-1.7c4.4-1.5,8.6-0.3,11,2.5c2.4-2.8,6.5-3.9,11-2.5c4.8,1.6,7.3,1.7,7.3,1.7
		l5.1-23.7C406.1,107.4,402.6,107.8,396.8,105.1"/>
	<path class="st1" d="M317.1,69H310v2.7h1.3c0.6,0,1.3,0.6,1.3,1.1v24.1h5.4V70.1C318,69.3,317.7,69,317.1,69"/>
	<path class="st1" d="M219,75.7h-5.3v-2.3c0-0.6,0.1-1,0.3-1.4s0.4-0.6,0.7-0.8c0.3-0.2,0.7-0.3,1.1-0.4s0.9-0.1,1.4-0.1h1.5v-2.4
		h-2.3c-1.6,0-3,0.4-3.9,1.2c-1,0.8-1.5,2.1-1.5,3.8v2.3h-3.2v2.3H219"/>
	<path class="st1" d="M283.4,86.9c-0.2,4.9-1.9,7.3-7.3,7.3c-3.2,0-5.1-1.3-6.4-2.6c0.5-0.9,0.9-1.9,1-2.8c0.5-2.3,0.6-4.6,0.6-4.6
		c0-3.3,2.1-6.1,5.6-6.1c3.6,0,5.9,2,6.3,6.1C283.3,84.3,283.5,85.8,283.4,86.9 M256.7,93.2c-0.9,0-1.7-0.1-2.3-0.4
		s-1.1-0.7-1.5-1.2s-0.6-1.1-0.8-1.8c-0.1-0.7-0.2-1.4-0.2-2.1v-10l0,0v-7.8c0-0.7-0.3-1.1-0.9-1.1h-7.1v2.6h1.3
		c0.6,0,1.3,0.6,1.3,1.1V84l0,0v6.2c0,1.1-0.1,1.9-0.5,2.3c-0.3,0.4-1,0.6-1.9,0.6h-7c-0.9,0-1.7-0.1-2.3-0.4s-1.1-0.7-1.5-1.2
		s-0.6-1.1-0.8-1.8c-0.2-0.7-0.2-1.4-0.2-2.2V69.9c0-0.7-0.3-1.1-0.9-1.1h-7.1v2.6h1.3c0.6,0,1.3,0.6,1.3,1.1V84l0,0v6.3
		c0,1.1-0.2,1.9-0.5,2.3s-1,0.6-2,0.6h-19c-2.1,0-2.6,0-2.6,0c-5.1-0.2-7.7-2.2-7.7-5.8c0-2.5,1.2-3.7,2.4-4.4v-1.9h-3.1
		c-1,1.2-2,3.3-2,6.4c0,6.1,4,9.1,10.4,9.2c0.1,0,1.8,0.1,1.8,0.1h20.1c0,0,2.3-0.1,3.2-0.3c1.3-0.3,2.3-0.9,3-1.7
		c0.6-0.8,1-1.8,1.2-3c0.3,1.5,1,2.7,2,3.6s2.4,1.4,4.1,1.4h6.6c1.2,0,2.2-0.1,3.1-0.4c0.8-0.2,1.5-0.6,2-1s1-1,1.2-1.6
		c0.3-0.6,0.5-1.3,0.6-2c0.3,1.5,1,2.7,2,3.6c0.9,0.9,2.1,1.3,3.6,1.4l0,0h2.7c3.4,0,5.8-1,7.5-2.5c1.8,1.1,4.4,2.8,8.8,2.8
		c5.5,0,9.1-1.9,10.8-5.3c0.3,1.4,1,2.6,1.9,3.5s2.1,1.4,3.6,1.4c0.1,0,0.2,0,0.3,0h12V70c0-0.7-0.3-1.1-0.9-1.1h-7.1v2.6h1.3
		c0.6,0,1.3,0.6,1.3,1.1v20.5h-7.6c-1.8,0-3.1-0.5-3.8-1.6c-0.2-0.4-0.4-0.8-0.6-1.2c0.4-1.2,0.6-2.6,0.6-4.1
		c0-6.7-4.7-10.8-11.5-10.8c-6.6,0-10.4,4-10.4,10v1.4c0,6.4-5.2,6.3-8.2,6.3"/>
	<path class="st1" d="M70.1,75.8c-3.9,0-6.4,0.5-7.9,1.1v4.4h3.1c0.4-2.1,2.1-2.7,4.9-2.7c4.4,0,7,2.7,7,8.1v6.7H59.6v3.5h22.7V86.6
		C82.4,79.9,77.5,75.8,70.1,75.8"/>
	<path class="st1" d="M118.4,84.5c0.2-1.1,1.1-2,2.6-2.9c1.8-1,4.1-1.5,6.7-1.5c2.7,0,5,0.5,6.8,1.5c1.4,0.8,2.2,1.8,2.4,2.9
		l-9.2,7.8C123.5,88.9,120.5,86.3,118.4,84.5 M92.6,90.8c-0.2-0.9-0.3-1.8-0.3-2.6c0-1.4,0.2-2.5,0.7-3.4s1-1.6,1.7-2.2
		c0.6-0.6,1.4-0.9,2.1-1.2c0.8-0.2,1.5-0.3,2.1-0.3h3.3v12.2h-8.5C93.1,92.5,92.8,91.7,92.6,90.8 M148.9,96.8c1.2,0,2.2-0.1,3.1-0.4
		c0.8-0.2,1.5-0.6,2.1-1c0.5-0.4,0.9-1,1.2-1.6s0.5-1.3,0.6-2.1c0.3,1.5,1,2.7,2,3.6c1,1,2.4,1.4,4.1,1.4h0.4c2.4,0,4.1-0.5,5.1-1.4
		s1.6-2.2,1.8-3.7c0.3,1.5,1,2.7,2,3.6c1,1,2.4,1.4,4.1,1.4h7.8V77.7h-7.9v2.7h1.8c0.6,0,1.2,0.6,1.2,1.1v5.2l0,0v6.7h-4.2
		c-0.9,0-1.6-0.1-2.2-0.4c-0.6-0.3-1.1-0.7-1.5-1.2s-0.6-1.1-0.8-1.8c-0.1-0.6-0.2-1.2-0.2-2v-7.6h-7.9v2.7h1.8c0.6,0,1.2,0.5,1.2,1
		v6.3c0,1.1-0.2,1.8-0.5,2.3c-0.3,0.4-1.5,0.6-2.4,0.6h-1c-0.9,0-1.6-0.1-2.2-0.4c-0.6-0.3-1.1-0.7-1.5-1.2
		c-0.3-0.5-0.6-1.1-0.8-1.8c-0.2-0.7-0.2-1.4-0.2-2.2V83l0,0l0,0H148v2.8h1.8c0.6,0,1.2,0.6,1.2,1.1v3.5c0,1.1-0.2,1.8-0.5,2.3
		s-1,0.6-1.9,0.6h-14c-0.7,0-1.5-0.1-2.2-0.2c5.6-4.6,8.7-7.2,9.2-7.6c0-2.3-1.3-4.4-4-6.2c-2.8-1.9-6.2-2.8-10-2.8
		c-3.9,0-7.2,0.9-10,2.8c-2.7,1.8-4.1,3.9-4.1,6.2c4.8,4.1,7.8,6.6,9.1,7.6c-0.7,0.1-1.4,0.2-2.1,0.2h-13V77.7h-8.4
		c-1.6,0-3.2,0.3-4.7,0.8s-2.8,1.3-3.9,2.3s-2,2.2-2.7,3.6c-0.6,1.4-1,3-1,4.7c0,1.3,0.2,2.6,0.6,4c0.4,1.3,0.9,2.6,1.5,3.8h12.3
		c-1.5,2-2.9,3.2-5.3,3.8v2.4h4.1c1.9-1,4-3.1,6-6.2h15.2c0,0,3.4,0,6.2-1.9c2.3,1.5,4.9,1.9,6.5,1.9"/>
	<path class="st1" d="M77.4,27.8c0.8,0,1.5-0.2,2-0.7s0.8-1.1,0.8-1.8c0-0.6-0.3-1.2-0.8-1.7s-1.2-0.7-2-0.7s-1.4,0.2-2,0.7
		s-0.8,1.1-0.8,1.7c0,0.7,0.3,1.3,0.8,1.8C76,27.6,76.6,27.8,77.4,27.8"/>
	<path class="st1" d="M69.5,27.8c0.8,0,1.4-0.2,2-0.7s0.9-1.1,0.9-1.8c0-0.6-0.3-1.2-0.9-1.7s-1.2-0.7-2-0.7s-1.4,0.2-2,0.7
		c-0.5,0.5-0.8,1.1-0.8,1.7c0,0.7,0.3,1.3,0.8,1.8C68.1,27.6,68.8,27.8,69.5,27.8"/>
	<path class="st1" d="M304.7,56.8c-0.8,0-1.5,0.2-2,0.7s-0.8,1.1-0.8,1.8s0.3,1.3,0.8,1.7c0.5,0.5,1.2,0.7,2,0.7s1.4-0.2,2-0.7
		c0.5-0.5,0.8-1,0.8-1.7s-0.3-1.3-0.8-1.8C306.2,57.1,305.5,56.8,304.7,56.8"/>
	<path class="st1" d="M212.9,43.9c-0.2,4.9-1.9,7.3-7.3,7.3c-3.2,0-5.1-1.3-6.3-2.6c0.5-0.9,0.9-1.9,1.1-2.8
		c0.5-2.3,0.6-4.6,0.6-4.6c0-3.3,2.1-6.1,5.6-6.1c3.6,0,5.9,2,6.3,6.1C212.8,41.3,213,42.8,212.9,43.9 M129.9,41.5
		c0.2-1,1.1-2,2.5-2.9c1.8-1,4-1.5,6.7-1.5s5,0.5,6.7,1.5c1.4,0.8,2.2,1.8,2.4,2.9l-9.2,7.7C135,45.8,132,43.2,129.9,41.5 M71.7,51
		c-3,0-6.2-1.2-6.2-7.5c0-6.1,3.4-7.7,6.9-7.7c2.2,0,4,0.8,5.4,1.7v11.2C76.2,50,74.3,51,71.7,51 M77.7,53.1c0,0.1,0,0.1,0.1,0.2
		c0.1,0.2,0.4,0.3,0.9,0.3h54.2c0,0,3.3,0,6.2-1.9c2.3,1.5,4.8,1.9,6.5,1.9h44.2c3.4,0,5.8-1,7.5-2.5c1.8,1.1,4.4,2.8,8.8,2.8
		c8,0,12-4.1,12-10.7s-4.6-10.8-11.5-10.8c-6.6,0-10.4,4-10.4,10v1.4c0,5.8-4.2,6.3-7.2,6.3l0,0h-42.8c-0.7,0-1.5,0-2.2-0.2
		c5.6-4.6,8.6-7.1,9.1-7.5c0-2.3-1.3-4.3-4-6.1c-2.8-1.9-6.1-2.8-9.9-2.8c-3.9,0-7.2,0.9-10,2.8c-2.7,1.8-4.1,3.9-4.1,6.2
		c4.8,4.1,7.8,6.6,9,7.5c-0.7,0.1-1.4,0.2-2.1,0.2H82.6V33h-2.8c-0.6,0-1.6,0.8-1.9,2.4c-1.6-1.5-3.8-2.6-7.3-2.6
		c-4.7,0-10.2,2.9-10.2,10.9c0,7.9,5.1,10.1,9.8,10.1c3.4,0,6-1.3,7.5-2.7"/>
	<path class="st1" d="M318.6,50.3h-2c-0.3,0-0.8-0.3-1-0.8l-1.8-7.7c-1.6-5.1-5.9-7.8-8.3-8.3c-1.3-0.4-3.8-0.6-4.1-0.6
		c-0.2,0-0.4,0-0.6,0c-4.5,0-8.8,1-10.6,1.9l-0.4,0.2v3h2.4l0.2-0.2c1-0.8,4.6-2,8.1-2h0.5c4.1,0,7.5,2.5,8.5,6.3l1.6,8.1h-78.2
		V26.9c0-0.7-0.2-1.1-0.9-1.1h-7v2.6h1.3c0.6,0,1.3,0.6,1.3,1.1v24.1h91.1"/>
	<path class="st1" d="M59.6,136.8h1.1c0.4,0,0.8-0.5,0.8-0.9v-13.5c0-0.4-0.4-0.9-0.8-0.9h-1.1v-1.8h7.2v1.8h-2.2v8.3l6.5-6.8
		c0.8-0.9,0.6-1.4-0.3-1.4h-0.5v-1.8h6.5v1.8H76c-0.5,0-0.9,0.3-1.5,0.9l-5.1,5.1l5.7,8.4c0.3,0.5,0.7,0.9,1.2,0.9H77v1.7h-4.9V137
		l-4.9-7.2l-2.7,2.7v4.4h2.2v1.7h-7.2"/>
	<path class="st1" d="M80.6,121.4c0-0.9,0.7-1.6,1.7-1.6c0.9,0,1.6,0.7,1.6,1.6s-0.7,1.6-1.6,1.6C81.3,123,80.6,122.3,80.6,121.4
		 M79.1,136.8h1c0.3,0,0.7-0.4,0.7-0.7v-9c0-0.3-0.3-0.8-0.7-0.8H79v-1.8h4.2c0.4,0,0.5,0.3,0.5,1.2V136c0,0.4,0.4,0.7,0.7,0.7h1
		v1.7H79"/>
	<path class="st1" d="M87.4,136.8h1c0.4,0,0.7-0.4,0.7-0.7v-9c0-0.3-0.4-0.8-0.7-0.8h-1.1v-1.8h4.1c0.4,0,0.7,0.4,0.7,1.7v0.4
		c1.4-1.3,3.3-2.2,5.5-2.2c2,0,3.7,0.7,3.7,3.5v8.3c0,0.4,0.4,0.7,0.7,0.7h0.9v1.7h-6.4v-1.7h1.9v-8c0-1.7-0.8-2.2-2.2-2.2
		c-1.5,0-2.9,0.6-4.1,1.3v8.9H94v1.7h-6.6"/>
	<path class="st1" d="M113.1,128.8c0-1.7-1-2.7-2.7-2.7s-2.7,1-2.7,2.7c0,1.6,1,2.6,2.7,2.6C112.1,131.4,113.1,130.4,113.1,128.8
		 M114.2,138.9c0-1.1-0.6-1.6-2.2-1.6h-4.6c-0.6,0.5-0.9,1-0.9,1.8c0,1.3,0.8,2.1,3.4,2.1C112.9,141.2,114.2,140.2,114.2,138.9
		 M103.9,139.7c0-1.6,1.1-2.5,2.4-3.1c-0.6-0.3-1.1-1-1.1-1.9c0-1.1,0.6-1.9,1.4-2.6c-1-0.7-1.6-1.9-1.6-3.3c0-2.6,2-4.5,5.3-4.5
		c0.6,0,1.2,0.1,1.7,0.2h4.8v1.8h-1.2c-0.3,0-0.6,0.2-0.6,0.5c0.4,0.6,0.6,1.2,0.6,2c0,2.6-2.1,4.3-5.4,4.3c-1,0-1.9-0.2-2.6-0.5
		c-0.2,0.3-0.4,0.7-0.4,1.2c0,0.7,0.5,1,1.3,1h3.9c2.8,0,4.2,1.1,4.2,3.5c0,2.8-1.9,4.8-7.1,4.8
		C105.5,143.1,103.9,141.7,103.9,139.7"/>
	<path class="st1" d="M127.2,137.8c-0.2,0-0.3,0.3-0.4,0.7h-2V133h2.1l0.3,2.3c0.9,0.9,1.9,1.4,3.9,1.4c2.1,0,3.6-1,3.6-3.1
		c0-2.5-1.9-2.8-4.6-3.6c-3.3-0.9-4.9-2.3-4.9-5.5c0-3.4,2.5-5.1,5.9-5.1c1.9,0,2.8,0.5,3.4,0.8c0.2,0,0.4-0.3,0.4-0.6h2v4.9h-2.1
		l-0.3-1.9c-0.7-0.6-1.6-1.3-3.4-1.3c-1.9,0-3.3,0.8-3.3,2.8c0,2.2,1.7,2.6,4.3,3.3c3.6,1,5.4,2.1,5.4,5.6c0,3.6-2.2,5.5-6.3,5.5
		C129,138.7,127.9,138.2,127.2,137.8"/>
	<path class="st1" d="M148.4,135.2v-3c-0.8-0.2-1.7-0.3-2.6-0.3c-2,0-3.3,0.7-3.3,2.5c0,1.7,1,2.4,2.6,2.4
		C146.6,136.8,147.5,136.1,148.4,135.2 M139.6,134.5c0-2.9,2.3-4.3,5.5-4.3c1.2,0,2.2,0.1,3.2,0.4v-1.8c0-1.8-1-2.4-2.8-2.4
		c-1.9,0-2.9,0.6-3.6,1.3h-1.3v-2.2c1.2-0.6,2.9-1.1,5.5-1.1c3.3,0,5.2,1,5.2,4.1v7.5c0,0.5,0.3,0.9,0.9,0.9h0.7v1.4
		c-0.4,0.2-1,0.4-1.8,0.4c-1.5,0-2.3-0.6-2.5-1.9c-1,1.3-2.4,1.9-4.3,1.9C141.5,138.6,139.6,137.2,139.6,134.5"/>
	<path class="st1" d="M155.6,135.2V127c0-0.3-0.4-0.7-0.7-0.7h-1v-1.8h4.6v9.8c0,1.8,0.9,2.3,2.2,2.3c1.4,0,2.9-0.6,4-1.4v-8.9h-2
		v-1.8h4.9V136c0,0.3,0.4,0.8,0.8,0.8h1.1v1.7h-4c-0.4,0-0.6-0.3-0.6-1.6v-0.3c-1.4,1.3-3.1,2.2-5.4,2.2
		C157.4,138.7,155.6,137.9,155.6,135.2"/>
	<path class="st1" d="M181.4,135v-7.5c-0.9-0.7-1.9-1.2-3.4-1.2c-2.1,0-4.1,1.1-4.1,5.2c0,4.3,1.9,5.3,3.7,5.3
		C179.3,136.8,180.5,136,181.4,135 M171,131.6c0-5.3,3.3-7.3,6.1-7.3c2.1,0,3.4,0.8,4.3,1.7v-4.4h-2v-1.8h4.4c0.4,0,0.5,0.3,0.5,0.7
		V136c0,0.3,0.4,0.8,0.7,0.8h1v1.7h-4c-0.3,0-0.5-0.4-0.6-1.9c-1,1.1-2.5,2.1-4.6,2.1C174,138.6,171,137,171,131.6"/>
	<path class="st1" d="M193.6,131.8v-9.3c0-0.4-0.4-0.9-0.9-0.9h-1.1v-1.8h7.4v1.8h-2.4V132c0,3.7,1.8,4.7,4.5,4.7s4.5-0.9,4.5-4.7
		v-10.3h-2.3v-1.8h6.6v1.8h-1.1c-0.4,0-0.8,0.5-0.8,0.9v9.3c0,4.8-2.4,7-7.1,7C196.3,138.8,193.6,136.6,193.6,131.8"/>
	<path class="st1" d="M210.8,136.9h1.1c0.3,0,0.7-0.4,0.7-0.7v-9c0-0.3-0.4-0.8-0.7-0.8h-1.2v-1.8h4.1c0.4,0,0.7,0.4,0.7,1.7v0.4
		c1.4-1.3,3.3-2.3,5.5-2.3c2,0,3.7,0.7,3.7,3.5v8.3c0,0.4,0.4,0.7,0.7,0.7h0.9v1.7h-6.4v-1.7h1.9v-8c0-1.7-0.8-2.2-2.2-2.2
		c-1.5,0-2.9,0.6-4.1,1.3v8.8h2v1.7h-6.6"/>
	<path class="st1" d="M229.1,121.5c0-0.9,0.7-1.6,1.7-1.6c0.9,0,1.7,0.7,1.7,1.6s-0.7,1.6-1.7,1.6
		C229.9,123.1,229.1,122.4,229.1,121.5 M227.7,136.9h1c0.3,0,0.7-0.4,0.7-0.7v-9c0-0.3-0.4-0.8-0.7-0.8h-1.2v-1.8h4.2
		c0.4,0,0.5,0.3,0.5,1.2v10.3c0,0.4,0.4,0.7,0.7,0.7h1v1.7h-6.4"/>
	<path class="st1" d="M235.8,127.2c-0.2-0.5-0.6-0.9-1-0.9h-0.5v-1.8h6.2v1.8h-2l3.5,9.4h0.1l3-7.8c0.3-0.9,0.3-1.6-0.7-1.6h-0.7
		v-1.8h5.6v1.8h-0.5c-0.5,0-0.9,0.3-1.1,0.9l-4.6,11.3h-2.7"/>
	<path class="st1" d="M259.4,130.3c-0.1-3-1.2-4.1-3.3-4.1c-2.1,0-3.5,1.3-3.7,4.1H259.4z M249.3,131.6c0-4.4,2.8-7.2,6.8-7.2
		c3.9,0,6.2,2.1,6.2,6.7c0,0.4,0,0.8,0,0.9h-10c0.1,3.3,1.5,4.9,4.3,4.9c2,0,2.9-0.7,3.6-1.6h1.6v2c-1.1,0.7-2.7,1.5-5.5,1.5
		C251.7,138.7,249.3,136,249.3,131.6"/>
	<path class="st1" d="M264.5,136.9h1c0.4,0,0.7-0.4,0.7-0.7v-9c0-0.3-0.4-0.8-0.7-0.8h-1.1v-1.8h4.1c0.4,0,0.7,0.3,0.7,1.9v0.5
		c1-1.3,2.2-2.4,4.2-2.4c0.3,0,0.6,0,0.8,0.1v2.4h-0.6c-2.1,0-3.4,0.5-4.4,1.4v8.5h2.2v1.7h-6.9"/>
	<path class="st1" d="M275.2,137.9V135h1.7c0.3,1.3,1.2,1.8,3.1,1.8s3.1-0.7,3.1-2.1c0-1.3-1-1.7-3.3-2.1c-2.9-0.4-4.4-1.3-4.4-4.1
		c0-2.6,2-4.2,5.3-4.2c2.2,0,3.6,0.3,4.6,0.7v2.8h-1.7c-0.3-1-1.1-1.5-3-1.5c-1.7,0-2.7,0.7-2.7,1.8c0,1.2,0.7,1.7,3.2,2
		c3.2,0.5,4.7,1.3,4.7,4.1c0,2.7-1.9,4.4-5.7,4.4C277.6,138.7,276.2,138.3,275.2,137.9"/>
	<path class="st1" d="M288.9,121.5c0-0.9,0.7-1.6,1.7-1.6c0.9,0,1.7,0.7,1.7,1.6s-0.8,1.6-1.7,1.6
		C289.7,123.1,288.9,122.4,288.9,121.5 M287.5,136.9h1c0.4,0,0.7-0.4,0.7-0.7v-9c0-0.3-0.3-0.8-0.7-0.8h-1.2v-1.8h4.2
		c0.4,0,0.5,0.3,0.5,1.2v10.3c0,0.4,0.4,0.7,0.7,0.7h1.1v1.7h-6.4"/>
	<path class="st1" d="M295.9,135.3v-8.9h-1.8v-1.8h1.8v-3.8h2.9v3.8h3.2v1.8h-3.2v8.6c0,1.6,0.5,1.9,1.9,1.9h1.4v1.6
		c-0.5,0.2-1.3,0.3-2.3,0.3C297.3,138.8,295.9,137.9,295.9,135.3"/>
	<path class="st1" d="M305.8,141.3c1.6-0.5,2.8-1.5,3.9-3.1l-4.7-11c-0.2-0.5-0.6-0.9-1-0.9h-0.5v-1.8h6.2v1.8h-2.1l3.6,8.6l2.9-7.1
		c0.4-0.9,0.3-1.6-0.7-1.6h-0.7v-1.8h5.7v1.8h-0.6c-0.4,0-0.8,0.4-1,0.9l-4.4,10.2c-1.3,3-2.7,4.6-4.1,5.4h-2.4"/>
</g>
</svg>
