<?xml version="1.0" encoding="utf-8"?>
<!-- Generator: Adobe Illustrator 28.0.0, SVG Export Plug-In . SVG Version: 6.00 Build 0)  -->
<svg version="1.1" id="Layer_1" xmlns="http://www.w3.org/2000/svg" xmlns:xlink="http://www.w3.org/1999/xlink" x="0px" y="0px"
	 viewBox="0 0 140 50" style="enable-background:new 0 0 140 50;" xml:space="preserve">
<style type="text/css">
	.st0{fill:#FFFFFF;}
	.st1{fill:#6440FB;}
	.st2{fill-rule:evenodd;clip-rule:evenodd;fill:#FFFFFF;}
</style>
<path class="st0" d="M66.4,17h8.6v2.6h-5.3v3.2h5.3v2.5h-5.3v3.1h5.3V31h-8.6V17z M87.2,21.9L87.2,21.9l0,9.1h-3v-1.4
	c-0.3,0.5-0.7,0.9-1.2,1.2c-0.5,0.3-1.2,0.4-1.8,0.4c-0.9,0-1.7-0.2-2.4-0.7c-0.7-0.4-1.2-1-1.6-1.8c-0.4-0.8-0.5-1.6-0.5-2.6
	c0-1,0.2-1.8,0.6-2.6c0.4-0.8,0.9-1.4,1.6-1.8c0.7-0.4,1.5-0.7,2.4-0.7c0.7,0,1.3,0.1,1.8,0.4c0.5,0.3,0.9,0.7,1.2,1.2V17h3.1V21.9z
	 M82,28.7c0.7,0,1.3-0.2,1.7-0.7s0.6-1.1,0.6-1.8c0-0.7-0.2-1.3-0.6-1.8c-0.4-0.5-1-0.7-1.7-0.7c-0.7,0-1.3,0.2-1.7,0.7
	c-0.4,0.5-0.6,1.1-0.6,1.8s0.2,1.4,0.6,1.8C80.7,28.5,81.3,28.7,82,28.7z M93.2,31.3c-1.1,0-2-0.3-2.6-1c-0.6-0.7-0.9-1.7-0.9-2.9
	v-6h3.1v5.3c0,0.7,0.1,1.2,0.4,1.5c0.3,0.3,0.7,0.5,1.2,0.5c0.6,0,1.1-0.2,1.4-0.6c0.3-0.4,0.5-0.9,0.5-1.6v-5.2h3V31h-3v-1.4
	c-0.3,0.5-0.7,0.9-1.2,1.2C94.5,31.1,93.9,31.3,93.2,31.3z M106.1,31.3c-1,0-2-0.2-2.7-0.6c-0.8-0.4-1.4-1-1.8-1.8
	c-0.4-0.8-0.6-1.7-0.6-2.7s0.2-1.9,0.6-2.7c0.4-0.8,1-1.4,1.8-1.8c0.8-0.4,1.7-0.6,2.7-0.6c1.4,0,2.6,0.4,3.5,1.1
	c0.9,0.7,1.4,1.7,1.5,2.9h-3.1c-0.1-0.5-0.3-0.8-0.6-1c-0.3-0.2-0.7-0.3-1.3-0.3c-0.7,0-1.2,0.2-1.6,0.7c-0.4,0.4-0.6,1.1-0.6,1.9
	c0,0.8,0.2,1.4,0.6,1.9c0.4,0.4,0.9,0.7,1.6,0.7c0.5,0,1-0.1,1.3-0.3c0.3-0.2,0.5-0.5,0.6-1h3.1c-0.1,1.2-0.6,2.1-1.5,2.8
	C108.7,31,107.6,31.3,106.1,31.3z M112.9,21.4h3.1v2c0.2-0.7,0.5-1.2,1-1.6c0.5-0.4,1.1-0.6,1.7-0.6c0.3,0,0.6,0,0.8,0.1v2.8
	c-0.4,0-0.7-0.1-0.9-0.1c-0.8,0-1.4,0.3-1.9,0.8c-0.5,0.5-0.7,1.3-0.7,2.4V31h-3.1V21.4z M124.7,31.3c-0.9,0-1.7-0.2-2.4-0.7
	c-0.7-0.4-1.2-1-1.6-1.8c-0.4-0.8-0.5-1.6-0.5-2.6c0-1,0.2-1.8,0.6-2.6c0.4-0.8,0.9-1.4,1.6-1.8c0.7-0.4,1.5-0.7,2.4-0.7
	c0.7,0,1.3,0.1,1.8,0.4c0.5,0.3,0.9,0.7,1.2,1.2v-1.4h3V31h-3v-1.4c-0.3,0.5-0.7,0.9-1.2,1.2C125.9,31.1,125.3,31.3,124.7,31.3z
	 M125.5,28.7c0.7,0,1.3-0.2,1.7-0.7c0.4-0.5,0.6-1.1,0.6-1.8c0-0.7-0.2-1.3-0.6-1.8c-0.4-0.5-1-0.7-1.7-0.7c-0.7,0-1.3,0.2-1.7,0.7
	c-0.4,0.5-0.6,1.1-0.6,1.8s0.2,1.4,0.6,1.8C124.3,28.5,124.8,28.7,125.5,28.7z M138.4,28.6c0.4,0,0.8,0,1.1-0.1V31
	c-0.6,0.1-1.3,0.2-2,0.2c-1,0-1.8-0.2-2.4-0.7c-0.7-0.5-1-1.4-1-2.8v-3.8h-1.5v-2.4h1.5v-2.9h3.1v2.9h2.2v2.4H137V27
	c0,0.7,0.1,1.1,0.3,1.3C137.6,28.5,137.9,28.6,138.4,28.6z"/>
<path class="st1" d="M22,0h6c12.2,0,22,9.8,22,22v6c0,12.2-9.8,22-22,22h-6C9.8,50,0,40.2,0,28v-6C0,9.8,9.8,0,22,0z"/>
<path class="st2" d="M13,23.5l1.5,0.9v1.8v1.8v1.8v1.8l1.5,0.9l1.5,0.9l1.5,0.9l1.5,0.9l1.5,0.9l1.5,0.9l1.5,0.9l1.5-0.9l1.5-0.9
	l1.5-0.9l1.5-0.9l1.5-0.9l1.5-0.9l1.5-0.9v-1.8v-1.8v-1.8v-1.8l1.5-0.9v3.2c-0.1,0.1-0.2,0.2-0.2,0.4c0,0.2,0.1,0.3,0.2,0.4
	l-0.1,0.2l-0.3,0.9h0.6h0.6l-0.3-0.9l-0.1-0.2c0.1-0.1,0.2-0.2,0.2-0.4c0-0.2-0.1-0.4-0.3-0.4v-3.4l-12-7l0.4-0.2l12,7l0.8-0.5
	l1.5-0.9l-1.5-0.9L37,20l-1.5-0.9L34,18.3l-1.5-0.9L31,16.5l-1.5-0.9L28,14.8l-1.5-0.9L25,13l-1.5,0.9L22,14.8l-1.5,0.9L19,16.5
	l-1.5,0.9L16,18.3l-1.5,0.9L13,20l-1.5,0.9L10,21.8l1.5,0.9L13,23.5z M23.5,20.9L25,20l1.5,0.9l1.5,0.9l-1.5,0.9L25,23.5l-1.5,0.9
	v1.8l1.5,0.9l1.5-0.9l1.5-0.9l1.5-0.9l1.5-0.9l1.5-0.9l1-0.6l0.5-0.3L32.7,21l-0.2-0.1L31,20l-1.5-0.9L28,18.3l-1.5-0.9L25,16.5
	l-1.5,0.9L22,18.3l-1.5,0.9L19,20l-1.5,0.9L16,21.8l1.5,0.9v1.8v1.8v1.8v0.9v0.9l1.5,0.9l1.5,0.9l1.5,0.9l1.5,0.9l1.5,0.9l1.5-0.9
	l1.5-0.9l1.5-0.9l1.5-0.9l1.5-0.9v-1.8v-1.8L31,27.1l-1.5,0.9L28,28.8l-1.5,0.9L25,30.6l-1.5-0.9L22,28.8l-1.5-0.9v-5.3l1.5-0.9
	L23.5,20.9z"/>
</svg>
