<?xml version="1.0" encoding="utf-8"?>
<!-- Generator: Adobe Illustrator 27.5.0, SVG Export Plug-In . SVG Version: 6.00 Build 0)  -->
<svg version="1.1" id="Layer_1" xmlns="http://www.w3.org/2000/svg" xmlns:xlink="http://www.w3.org/1999/xlink" x="0px" y="0px"
	 viewBox="0 0 595.3 271" style="enable-background:new 0 0 595.3 271;" xml:space="preserve">
<style type="text/css">
	.st0{fill:#FFFFFF;}
</style>
<g>
	<g>
		<path class="st0" d="M112,4.6c0.1,0,0.3,0,0.4,0c9.6,0.9,19.1,3.3,28.1,6.9c8.7,3.6,17,8.4,24.4,14.2c1.9,1.5,21,18.9,19.4,20.5
			c-2.7,2.2-5.6,4.1-8.6,5.8c-14.4-20.7-38.3-34.7-63.4-37.1c-0.5,0-1-0.1-1.4,0.3c-0.4,0.3-0.4,0.9-0.4,1.4
			c-0.1,6.3-0.1,12.7-0.2,19c-14.7-0.9-29.8,2.7-42,11s-21.2,21.5-23.7,36c-3.6,0-7.3,0.1-10.9,0.1c2.7-15,10.5-29.1,21.9-39.3
			S81.8,27,97,26c0.8-0.1,1.7-0.1,2.2-0.8c0.3-0.5,0.3-1.1,0.4-1.6c0-4.3-1.7-14,0.2-17.7C101.2,2.9,108.1,4.2,112,4.6z"/>
		<path class="st0" d="M7.3,97c0.1,0.6,0.2,1.2,0.2,1.9c0,3.3,0,6.5-0.1,9.8c0,0.3-0.1,0.5-0.2,0.8C7.3,105.3,7.3,101.2,7.3,97z"/>
		<path class="st0" d="M455.1,81.9c0,1.4,0,2.7,0,3.9c0,10.2,0,20.3,0,30.5c0,0.4,0,0.8,0,1.2c0.1,1.8,0.1,1.8-1.8,1.8
			c-16.7,0-33.4,0-50,0.1c-1.2,0-2.4,0-3.7,0c0,1.5,0,2.8,0,4.1c0,5.2-0.1,10.4-0.2,15.6c0,2.2-0.1,4.4-0.1,6.6
			c0,1.1,0.6,1.7,1.9,1.7c4,0,8,0,12.1,0c15.7,0,31.5,0,47.2,0c0.5,0,0.9,0,1.5-0.1c0.1,0.6,0.2,1.2,0.2,1.8c0,11.3,0,22.7,0,34
			c0,0.7-0.1,1.3-0.2,2c-1.3-0.7-2.5-0.8-3.7-0.1c-0.3,0.2-0.8,0.1-1.2,0.1c-23.4,0-46.8,0-70.1,0c-9.2,0-18.3,0-27.5,0
			c-0.9,0-1.3-0.3-1.3-1.1c0-0.5,0-0.9,0-1.4c0-51.3,0-102.6,0-153.8c0-2,0-4,0-6c0-0.9,0.3-1.3,1.3-1.3c17.4,0,34.8,0,52.3,0.1
			c15.1,0,30.3,0,45.4,0c3,0,3,0,3,2.9c0,11,0,22.1,0,33.1c0,0.5-0.2,1-0.3,1.6c-1.2-0.5-2.2-0.7-3.2,0c-0.3,0.2-0.8,0.1-1.2,0.1
			c-16,0-32,0-47.9,0c-2,0-4,0-6,0c-1.4,0-1.6,0.2-1.6,1.6c0,5,0,9.9,0,14.9c0,1.5,0,3,0,4.5c0,1,0.3,1.5,1.3,1.4
			c1.7,0,3.3,0.1,5,0.1c16.1,0,32.2,0,48.2,0.1C454.4,81.9,454.7,81.9,455.1,81.9z M381.5,102.9c19.8,0,39.5,0,59.1,0
			c0-1.5,0-2.8,0-4.3c-19.8,0-39.4,0-59.1,0c0-18.6,0-37.1,0-55.7c20.9,0,41.7,0,62.5,0c0-1.4,0-2.8,0-4.1c-22.3,0-44.5,0-66.7,0
			c0,43.4,0,86.6,0,129.9c23.1,0,46.2,0,69.3,0c0-1.4,0-2.8,0-4.2c-21.7,0-43.4,0-65.1,0C381.5,144,381.5,123.6,381.5,102.9z"/>
		<path class="st0" d="M335.9,59.3c-1.3-0.7-2.4-0.6-3.5-0.2c-0.4,0.1-0.8,0.3-1.2,0.3c-11.1,0-22.3,0-33.4,0
			c-0.4,0-0.8-0.2-1.4-0.4c-0.1,0.7-0.2,1.5-0.2,2.3c0,37,0,73.9,0,110.9c0,3.8,0,7.5,0,11.3c0,0.8-0.2,1.1-1.1,1.2
			c-12.8,1.1-25.7,0.3-38.6,0.5c-1.8,0-1.9-0.1-1.9-1.8c0-19.8,0-39.5,0-59.3c0-21,0-42,0-63c0-2.4,0.3-2.6-2.4-2.2
			c-6,1-11.9,0.4-17.9,0.5s-12.1,0-18.1,0c-1.8,0-1.7,0.2-1.7-1.7c0-11.3,0-22.5,0-33.8c0-2.4,0.1-2.4,2.4-2.3c2.1,0.1,4.2,0,6.2,0
			c36.2,0,72.4,0,108.7,0c1.1,0,2.2-0.1,3.3,0c0.3,0,0.7,0.4,0.7,0.6c0.1,0.9,0.1,1.8,0.1,2.6c0,10.4,0,20.8,0,31.1
			C336.1,57,336,58.1,335.9,59.3z M273.1,42.2c0,42.6,0,85,0,127.4c1.5,0,2.8,0,4.3,0c0-42.5,0-84.9,0-127.4c14.4,0,28.7,0,43.1,0
			c0-1.5,0-2.8,0-4.2c-30.2,0-60.3,0-90.4,0c0,1.4,0,2.8,0,4.2C244.3,42.2,258.6,42.2,273.1,42.2z"/>
		<path class="st0" d="M593,184.4c-1.5,0.3-2.7,0.8-4,0.8c-7.4,0.1-14.9,0.1-22.3,0.1c-24.2,0-48.3,0-72.5,0c-0.5,0-0.9,0-1.4,0
			c-1.3,0-1.5-0.2-1.5-1.5c0-2.1,0.1-4.3,0.1-6.4c0-49.6,0-99.2,0-148.8c0-1.7-0.1-3.4-0.1-5.1s0-1.8,1.7-1.8c11.8,0,23.7,0,35.5,0
			c1.2,0,2.5,0.1,3.7,0c1,0,1.3,0.4,1.3,1.3c0,12.4,0,24.8,0.1,37.2c0,14.8,0,29.5,0,44.3c0,12.2,0,24.5,0,36.7c0,1.5,0,3,0,4.5
			c0,1.3,0.1,1.4,1.4,1.4c2.3,0,4.6,0,6.9,0c15.9,0,31.8,0,47.7,0c0.8,0,1.7,0.1,2.5,0.1c0.7,0,1,0.3,1,1c0,2.1,0,4.1,0,6.2
			c0,9.7-0.1,19.3-0.1,29C593.1,183.8,593,184.2,593,184.4z M515.2,164.6c0-42.6,0-85,0-127.4c-1.5,0-2.8,0-4.1,0
			c0,43.9,0,87.8,0,131.6c22.3,0,44.5,0,66.8,0c0-1.4,0-2.7,0-4.1C556.9,164.6,536.2,164.6,515.2,164.6z"/>
		<path class="st0" d="M158.9,123.5c-18.2,0-36.5,0-54.7-0.1c0-12,0-24,0-36c31.1,0,62.3-0.1,93.4-0.1c0.9,0,1.9,0,2.5,0.7
			c0.5,0.5,0.6,1.2,0.7,1.9c3.6,25-2.9,51.2-17.6,71.7s-37.6,34.9-62.5,39.4c-2.7-2.7-1.3-7.7,1.7-10.2s7-3.1,10.8-4.1
			c8.3-2.3,15.9-6.5,22.7-11.8c23.4-18,37.2-47.9,35.6-77.4c-25.7,0-51.4,0-77.2,0c0,5.2,0,10.3,0,15.5c20.2,0.1,40.3,0.1,60.5,0.2
			c-2.1,16-9.7,31.3-21.3,42.6s-27,18.6-43,20.3c-0.1,8.8-0.2,17.7-0.4,26.5c-32.3,0.9-64.6-15-83.5-41.3S2.8,99.3,14,69
			c6.2-17,17.3-31.9,31.4-43.2c7.1-5.7,15-10.5,23.4-14.1c3.8-1.6,8.9-4.3,13-4.5c4.9-0.2,5.7,4.8,5.4,9.2
			c-27.2,6.3-50.9,26.3-61.8,52s-8.7,56.7,5.7,80.6s40.7,40.4,68.5,42.9c0.1-8.7,0.3-17.4,0.4-26.1c26.7,1.7,53.5-16.7,61.5-42.2
			C160.5,123.5,159.7,123.5,158.9,123.5z"/>
		<path class="st0" d="M47.9,93.9c0.5-0.4,0.6-1.1,0.8-1.8C52,72.6,66.2,55.4,84.4,47.7c20.1-8.5,44.1-3.4,59.7,11.7
			c-2.5,2.6-4.9,5.1-7.4,7.7c-13-13.4-34.9-16.7-51.7-8.4s-27.4,27-26.9,45.7c-4.2,0.1-8.5,0.2-12.7,0.4
			c-0.4,13.3,3.9,26.7,12.1,37.3c8.2,10.5,20.1,18.1,33.1,21c0,3.5,0,7,0.1,10.5c-17.3-2.8-33.1-13.1-43.1-27.5s-14.1-32.6-12-50
			c0.1-0.6,0.2-1.2,0.6-1.5c0.4-0.3,1-0.3,1.5-0.3c2.9,0.1,5.7,0.1,8.6,0.2C46.8,94.3,47.4,94.3,47.9,93.9z"/>
	</g>
	<g>
		<path class="st0" d="M223.8,264.1h-17.6l-16-21H185v21h-14.3v-57.4h23.1c3.2,0,6,0.2,8.3,0.6c2.4,0.4,4.5,1.2,6.6,2.5s3.7,3,4.9,5
			s1.8,4.6,1.8,7.7c0,4.4-1,8-3,10.7s-4.6,4.9-7.9,6.5L223.8,264.1z M200.6,224.3c0-1.4-0.3-2.7-0.8-3.7c-0.6-1-1.5-1.8-2.8-2.4
			c-0.9-0.4-1.9-0.6-3-0.7c-1.1-0.1-2.5-0.2-4.1-0.2H185v15.5h4.1c2,0,3.7-0.1,5.1-0.4c1.4-0.2,2.6-0.8,3.6-1.6
			c0.9-0.7,1.6-1.6,2.1-2.6C200.3,227.2,200.6,225.9,200.6,224.3z"/>
		<path class="st0" d="M228,264.1v-57.4h38.8v10.9h-24.5v10.1h22.5v10.9h-22.5v14.5h24.5V264H228V264.1z"/>
		<path class="st0" d="M294.3,265.1c-4.4,0-8.3-0.4-11.6-1.3c-3.3-0.8-6.4-1.9-9.3-3.2V247h1.3c2.9,2.4,6,4.3,9.5,5.6s6.8,2,10.1,2
			c0.8,0,1.9-0.1,3.3-0.3s2.4-0.5,3.3-0.8c1-0.4,1.8-1,2.5-1.8s1-1.8,1-3.1c0-1.4-0.6-2.6-1.7-3.5s-2.5-1.6-4-2c-2-0.5-4-1-6.3-1.5
			s-4.3-1-6.2-1.7c-4.4-1.6-7.6-3.7-9.6-6.3c-1.9-2.6-2.9-6-2.9-9.9c0-5.4,2.3-9.7,6.8-13s10.2-5,17-5c3.4,0,6.8,0.3,10.2,1
			c3.4,0.7,6.4,1.6,9.1,2.8v13.1h-1.3c-2.1-1.8-4.7-3.4-7.8-4.6c-3.1-1.3-6.2-1.9-9.5-1.9c-1.3,0-2.4,0.1-3.4,0.3s-2.1,0.5-3.2,1
			c-0.9,0.4-1.7,1-2.3,1.8s-1,1.7-1,2.7c0,1.5,0.5,2.6,1.6,3.5c1,0.9,3,1.6,6,2.3c1.9,0.4,3.8,0.9,5.6,1.3c1.8,0.4,3.7,1,5.7,1.7
			c4,1.4,6.9,3.4,8.9,5.8c1.9,2.4,2.9,5.6,2.9,9.6c0,5.7-2.2,10.3-6.7,13.8S301.9,265.1,294.3,265.1z"/>
		<path class="st0" d="M326.5,264.1v-57.4h38.8v10.9h-24.5v10.1h22.5v10.9h-22.5v14.5h24.5V264h-38.8V264.1z"/>
		<path class="st0" d="M368.9,264.1l19.4-57.4H404l19.4,57.4h-14.8l-3.6-11.7h-18l-3.6,11.7H368.9z M401.8,241.9L396,223l-5.9,18.9
			H401.8z"/>
		<path class="st0" d="M482.1,264.1h-17.6l-16-21h-5.2v21H429v-57.4h23.1c3.2,0,6,0.2,8.3,0.6c2.4,0.4,4.5,1.2,6.6,2.5s3.7,3,4.9,5
			c1.2,2,1.8,4.6,1.8,7.7c0,4.4-1,8-3,10.7s-4.6,4.9-7.9,6.5L482.1,264.1z M459,224.3c0-1.4-0.3-2.7-0.8-3.7c-0.6-1-1.5-1.8-2.8-2.4
			c-0.9-0.4-1.9-0.6-3-0.7c-1.1-0.1-2.5-0.2-4.1-0.2h-4.8v15.5h4.1c2,0,3.7-0.1,5.1-0.4c1.4-0.2,2.6-0.8,3.6-1.6
			c0.9-0.7,1.6-1.6,2.1-2.6C458.7,227.2,459,225.9,459,224.3z"/>
		<path class="st0" d="M511.1,265.2c-8.6,0-15.4-2.6-20.5-7.8c-5.1-5.2-7.6-12.5-7.6-21.9c0-9.1,2.5-16.3,7.6-21.8
			c5.1-5.4,11.9-8.1,20.5-8.1c2.3,0,4.3,0.1,6.2,0.4c1.8,0.3,3.6,0.6,5.2,1.1c1.3,0.4,2.7,0.9,4.3,1.6s2.8,1.2,3.7,1.7V224H529
			c-0.7-0.6-1.6-1.4-2.6-2.2c-1.1-0.9-2.2-1.7-3.6-2.5c-1.3-0.8-2.8-1.5-4.4-2.1c-1.6-0.6-3.3-0.9-5-0.9c-2.1,0-4,0.3-5.7,1
			s-3.4,1.8-5,3.4c-1.4,1.5-2.6,3.4-3.5,5.9s-1.4,5.4-1.4,8.8c0,3.6,0.5,6.6,1.4,9s2.2,4.4,3.7,5.9c1.5,1.4,3.2,2.5,5,3.1
			s3.7,1,5.5,1c1.9,0,3.7-0.3,5.4-0.9c1.7-0.6,3.2-1.3,4.4-2.1c1.3-0.8,2.4-1.6,3.4-2.4c1-0.8,1.8-1.6,2.5-2.2h1.3v13.5
			c-1.1,0.5-2.3,1-3.7,1.7c-1.4,0.6-2.8,1.2-4.3,1.6c-1.8,0.5-3.5,1-5,1.2C516,265,513.9,265.2,511.1,265.2z"/>
		<path class="st0" d="M587.5,264.1h-14.4v-25.4h-19.6v25.4h-14.4v-57.4h14.4v21h19.6v-21h14.4V264.1z"/>
	</g>
</g>
</svg>
