<?xml version="1.0" encoding="utf-8"?>
<!-- Generator: Adobe Illustrator 27.5.0, SVG Export Plug-In . SVG Version: 6.00 Build 0)  -->
<svg version="1.1" id="Layer_1" xmlns="http://www.w3.org/2000/svg" xmlns:xlink="http://www.w3.org/1999/xlink" x="0px" y="0px"
	 viewBox="0 0 595.3 271" style="enable-background:new 0 0 595.3 271;" xml:space="preserve">
<style type="text/css">
	.st0{fill:#FFFFFF;}
</style>
<g>
	<path class="st0" d="M111.3,4.6c0.1,0,0.3,0,0.4,0c9.6,0.9,19.1,3.3,28.1,6.9c8.7,3.6,17,8.4,24.4,14.2c1.9,1.5,21,18.9,19.4,20.5
		c-2.7,2.2-5.6,4.1-8.6,5.8c-14.4-20.7-38.3-34.7-63.4-37.1c-0.5,0-1-0.1-1.4,0.3c-0.4,0.3-0.4,0.9-0.4,1.4
		c-0.1,6.3-0.1,12.7-0.2,19c-14.7-0.9-29.8,2.7-42,11S46.4,68.1,43.9,82.6c-3.6,0-7.3,0.1-10.9,0.1c2.7-15,10.5-29.1,21.9-39.3
		S81.1,27,96.4,26c0.8-0.1,1.7-0.1,2.2-0.8c0.3-0.5,0.3-1.1,0.4-1.6c0-4.3-1.7-14,0.2-17.7C100.6,2.9,107.5,4.2,111.3,4.6z"/>
	<path class="st0" d="M6.6,97c0.1,0.6,0.2,1.2,0.2,1.9c0,3.3,0,6.5-0.1,9.8c0,0.3-0.1,0.5-0.2,0.8C6.6,105.3,6.6,101.2,6.6,97z"/>
	<path class="st0" d="M454.4,81.9c0,1.4,0,2.7,0,3.9c0,10.2,0,20.3,0,30.5c0,0.4,0,0.8,0,1.2c0.1,1.8,0.1,1.8-1.8,1.8
		c-16.7,0-33.4,0-50,0.1c-1.2,0-2.4,0-3.7,0c0,1.5,0,2.8,0,4.1c0,5.2-0.1,10.4-0.2,15.6c0,2.2-0.1,4.4-0.1,6.6
		c0,1.1,0.6,1.7,1.9,1.7c4,0,8,0,12.1,0c15.7,0,31.5,0,47.2,0c0.5,0,0.9,0,1.5-0.1c0.1,0.6,0.2,1.2,0.2,1.8c0,11.3,0,22.7,0,34
		c0,0.7-0.1,1.3-0.2,2c-1.3-0.7-2.5-0.8-3.7-0.1c-0.3,0.2-0.8,0.1-1.2,0.1c-23.4,0-46.8,0-70.1,0c-9.2,0-18.3,0-27.5,0
		c-0.9,0-1.3-0.3-1.3-1.1c0-0.5,0-0.9,0-1.4c0-51.3,0-102.6,0-153.8c0-2,0-4,0-6c0-0.9,0.3-1.3,1.3-1.3c17.4,0,34.8,0,52.3,0.1
		c15.1,0,30.3,0,45.4,0c3,0,3,0,3,2.9c0,11,0,22.1,0,33.1c0,0.5-0.2,1-0.3,1.6c-1.2-0.5-2.2-0.7-3.2,0c-0.3,0.2-0.8,0.1-1.2,0.1
		c-16,0-32,0-47.9,0c-2,0-4,0-6,0c-1.4,0-1.6,0.2-1.6,1.6c0,5,0,9.9,0,14.9c0,1.5,0,3,0,4.5c0,1,0.3,1.5,1.3,1.4
		c1.7,0,3.3,0.1,5,0.1c16.1,0,32.2,0,48.2,0.1C453.8,81.9,454,81.9,454.4,81.9z M380.8,102.9c19.8,0,39.5,0,59.1,0
		c0-1.5,0-2.8,0-4.3c-19.8,0-39.4,0-59.1,0c0-18.6,0-37.1,0-55.7c20.9,0,41.7,0,62.5,0c0-1.4,0-2.8,0-4.1c-22.3,0-44.5,0-66.7,0
		c0,43.4,0,86.6,0,129.9c23.1,0,46.2,0,69.3,0c0-1.4,0-2.8,0-4.2c-21.7,0-43.4,0-65.1,0C380.8,144,380.8,123.6,380.8,102.9z"/>
	<path class="st0" d="M335.2,59.3c-1.3-0.7-2.4-0.6-3.5-0.2c-0.4,0.1-0.8,0.3-1.2,0.3c-11.1,0-22.3,0-33.4,0c-0.4,0-0.8-0.2-1.4-0.4
		c-0.1,0.7-0.2,1.5-0.2,2.3c0,37,0,73.9,0,110.9c0,3.8,0,7.5,0,11.3c0,0.8-0.2,1.1-1.1,1.2c-12.8,1.1-25.7,0.3-38.6,0.5
		c-1.8,0-1.9-0.1-1.9-1.8c0-19.8,0-39.5,0-59.3c0-21,0-42,0-63c0-2.4,0.3-2.6-2.4-2.2c-6,1-11.9,0.4-17.9,0.5c-6,0.1-12.1,0-18.1,0
		c-1.8,0-1.7,0.2-1.7-1.7c0-11.3,0-22.5,0-33.8c0-2.4,0.1-2.4,2.4-2.3c2.1,0.1,4.2,0,6.2,0c36.2,0,72.4,0,108.7,0
		c1.1,0,2.2-0.1,3.3,0c0.3,0,0.7,0.4,0.7,0.6c0.1,0.9,0.1,1.8,0.1,2.6c0,10.4,0,20.8,0,31.1C335.4,57,335.3,58.1,335.2,59.3z
		 M272.4,42.2c0,42.6,0,85,0,127.4c1.5,0,2.8,0,4.3,0c0-42.5,0-84.9,0-127.4c14.4,0,28.7,0,43.1,0c0-1.5,0-2.8,0-4.2
		c-30.2,0-60.3,0-90.4,0c0,1.4,0,2.8,0,4.2C243.7,42.2,258,42.2,272.4,42.2z"/>
	<path class="st0" d="M592.3,184.4c-1.5,0.3-2.7,0.8-4,0.8c-7.4,0.1-14.9,0.1-22.3,0.1c-24.2,0-48.3,0-72.5,0c-0.5,0-0.9,0-1.4,0
		c-1.3,0-1.5-0.2-1.5-1.5c0-2.1,0.1-4.3,0.1-6.4c0-49.6,0-99.2,0-148.8c0-1.7-0.1-3.4-0.1-5.1c0-1.7,0-1.8,1.7-1.8
		c11.8,0,23.7,0,35.5,0c1.2,0,2.5,0.1,3.7,0c1,0,1.3,0.4,1.3,1.3c0,12.4,0,24.8,0.1,37.2c0,14.8,0,29.5,0,44.3c0,12.2,0,24.5,0,36.7
		c0,1.5,0,3,0,4.5c0,1.3,0.1,1.4,1.4,1.4c2.3,0,4.6,0,6.9,0c15.9,0,31.8,0,47.7,0c0.8,0,1.7,0.1,2.5,0.1c0.7,0,1,0.3,1,1
		c0,2.1,0,4.1,0,6.2c0,9.7-0.1,19.3-0.1,29C592.4,183.8,592.4,184.2,592.3,184.4z M514.5,164.6c0-42.6,0-85,0-127.4
		c-1.5,0-2.8,0-4.1,0c0,43.9,0,87.8,0,131.6c22.3,0,44.5,0,66.8,0c0-1.4,0-2.7,0-4.1C556.3,164.6,535.5,164.6,514.5,164.6z"/>
	<path class="st0" d="M158.3,123.5c-18.2,0-36.5,0-54.7-0.1c0-12,0-24,0-36c31.1,0,62.3-0.1,93.4-0.1c0.9,0,1.9,0,2.5,0.7
		c0.5,0.5,0.6,1.2,0.7,1.9c3.6,25-2.9,51.2-17.6,71.7c-14.8,20.5-37.6,34.9-62.5,39.4c-2.7-2.7-1.3-7.7,1.7-10.2s7-3.1,10.8-4.1
		c8.3-2.3,15.9-6.5,22.7-11.8c23.4-18,37.2-47.9,35.6-77.4c-25.7,0-51.4,0-77.2,0c0,5.2,0,10.3,0,15.5c20.2,0.1,40.3,0.1,60.5,0.2
		c-2.1,16-9.7,31.3-21.3,42.6c-11.6,11.3-27,18.6-43,20.3c-0.1,8.8-0.2,17.7-0.4,26.5c-32.3,0.9-64.6-15-83.5-41.3S2.2,99.3,13.3,69
		C19.5,52,30.7,37.1,44.7,25.8c7.1-5.7,15-10.5,23.4-14.1c3.8-1.6,8.9-4.3,13-4.5C86,7,86.8,12,86.5,16.4
		c-27.2,6.3-50.9,26.3-61.8,52s-8.7,56.7,5.7,80.6s40.7,40.4,68.5,42.9c0.1-8.7,0.3-17.4,0.4-26.1c26.7,1.7,53.5-16.7,61.5-42.2
		C159.9,123.5,159.1,123.5,158.3,123.5z"/>
	<path class="st0" d="M47.3,93.9c0.5-0.4,0.6-1.1,0.8-1.8c3.3-19.6,17.5-36.7,35.7-44.4c20.1-8.5,44.1-3.4,59.7,11.7
		c-2.5,2.6-4.9,5.1-7.4,7.7c-13-13.4-34.9-16.7-51.7-8.4s-27.4,27-26.9,45.7c-4.2,0.1-8.5,0.2-12.7,0.4
		c-0.4,13.3,3.9,26.7,12.1,37.3c8.2,10.5,20.1,18.1,33.1,21c0,3.5,0,7,0.1,10.5c-17.3-2.8-33.1-13.1-43.1-27.5s-14.1-32.6-12-50
		c0.1-0.6,0.2-1.2,0.6-1.5c0.4-0.3,1-0.3,1.5-0.3c2.9,0.1,5.7,0.1,8.6,0.2C46.1,94.3,46.8,94.3,47.3,93.9z"/>
</g>
<g>
	<path class="st0" d="M217.7,235.4c0,5.3-1.2,10.1-3.5,14.4s-5.3,7.5-8.9,9.7c-3,1.9-6.2,3.2-9.7,3.7c-3.5,0.6-7.2,0.8-11.2,0.8h-18
		v-57.4h17.8c4,0,7.8,0.3,11.3,0.8c3.5,0.5,6.8,1.8,9.9,3.7c3.8,2.4,6.8,5.7,8.9,9.8C216.6,225.1,217.7,229.9,217.7,235.4z
		 M202.9,235.3c0-3.8-0.6-7-1.9-9.7c-1.3-2.7-3.3-4.8-6-6.3c-2-1.1-4-1.7-6.1-1.8c-2.1-0.1-4.7-0.2-7.7-0.2h-0.3v35.9h0.3
		c3.2,0,6-0.1,8.2-0.2c2.2-0.1,4.3-0.8,6.3-2.1c2.4-1.5,4.2-3.5,5.4-6.2C202.3,242.3,202.9,239.1,202.9,235.3z"/>
	<path class="st0" d="M226.2,264.1v-57.4H265v10.9h-24.5v10.1h22.5v10.9h-22.5v14.5H265v10.9H226.2z"/>
	<path class="st0" d="M333.4,264.1h-14.3v-38l-10.4,24.5h-9.8L288.3,226v38h-13.6v-57.4h16.6l12.7,28.3l12.7-28.3h16.6V264.1z"/>
	<path class="st0" d="M397.5,235.4c0,9.3-2.5,16.6-7.4,21.9c-5,5.3-11.8,8-20.4,8c-8.7,0-15.5-2.7-20.4-8.1
		c-4.9-5.4-7.4-12.6-7.4-21.8c0-9.2,2.5-16.5,7.4-21.9c4.9-5.4,11.7-8,20.4-8c8.6,0,15.4,2.7,20.4,8
		C395,218.8,397.5,226.1,397.5,235.4z M382.6,235.4c0-3.4-0.4-6.3-1.1-8.7c-0.7-2.4-1.7-4.4-2.8-5.9c-1.2-1.6-2.6-2.7-4.2-3.4
		c-1.6-0.7-3.2-1-4.8-1c-1.8,0-3.4,0.3-4.8,0.9c-1.4,0.6-2.8,1.8-4.2,3.4c-1.2,1.5-2.1,3.5-2.9,5.9c-0.7,2.5-1.1,5.4-1.1,8.8
		c0,3.5,0.3,6.4,1,8.8c0.7,2.3,1.6,4.3,2.9,5.8c1.2,1.6,2.6,2.7,4.2,3.4c1.6,0.7,3.2,1,4.9,1c1.7,0,3.3-0.4,4.9-1.1
		c1.6-0.7,3-1.9,4.1-3.4c1.2-1.7,2.2-3.6,2.9-5.8C382.3,241.9,382.6,238.9,382.6,235.4z"/>
	<path class="st0" d="M444.4,217.6h-24.1v10.8h22.2v10.9h-22.2v24.7H406v-57.4h38.4V217.6z"/>
	<path class="st0" d="M451.9,264.1v-57.4h38.8v10.9h-24.5v10.1h22.5v10.9h-22.5v14.5h24.5v10.9H451.9z"/>
	<path class="st0" d="M518.1,265.1c-4.4,0-8.3-0.4-11.6-1.3s-6.4-1.9-9.3-3.2V247h1.3c2.9,2.4,6,4.3,9.5,5.6s6.8,2,10.1,2
		c0.8,0,1.9-0.1,3.3-0.3s2.4-0.5,3.3-0.8c1-0.4,1.8-1,2.5-1.8c0.7-0.8,1-1.8,1-3.1c0-1.4-0.6-2.6-1.7-3.5c-1.1-0.9-2.5-1.6-4-2
		c-2-0.5-4-1-6.3-1.5c-2.2-0.5-4.3-1-6.2-1.7c-4.4-1.6-7.6-3.7-9.6-6.3c-1.9-2.6-2.9-6-2.9-9.9c0-5.4,2.3-9.7,6.8-13
		c4.5-3.3,10.2-5,17-5c3.4,0,6.8,0.3,10.2,1s6.4,1.6,9.1,2.8v13.1h-1.3c-2.1-1.8-4.7-3.4-7.8-4.6c-3.1-1.3-6.2-1.9-9.5-1.9
		c-1.3,0-2.4,0.1-3.4,0.3c-1,0.2-2.1,0.5-3.2,1c-0.9,0.4-1.7,1-2.3,1.8c-0.7,0.8-1,1.7-1,2.7c0,1.5,0.5,2.6,1.6,3.5s3,1.6,6,2.3
		c1.9,0.4,3.8,0.9,5.6,1.3c1.8,0.4,3.7,1,5.7,1.7c4,1.4,6.9,3.4,8.9,5.8c1.9,2.4,2.9,5.6,2.9,9.6c0,5.7-2.2,10.3-6.7,13.8
		C531.8,263.4,525.8,265.1,518.1,265.1z"/>
	<path class="st0" d="M561.4,264.1v-46.4h-17v-10.9h48.3v10.9h-17v46.4H561.4z"/>
</g>
</svg>
