<?xml version="1.0" encoding="utf-8"?>
<!-- Generator: Adobe Illustrator 27.5.0, SVG Export Plug-In . SVG Version: 6.00 Build 0)  -->
<svg version="1.1" id="Layer_1" xmlns="http://www.w3.org/2000/svg" xmlns:xlink="http://www.w3.org/1999/xlink" x="0px" y="0px"
	 viewBox="0 0 595.3 271" style="enable-background:new 0 0 595.3 271;" xml:space="preserve">
<style type="text/css">
	.st0{fill:#FFFFFF;}
</style>
<g>
	<g>
		<path class="st0" d="M112,4.6c0.1,0,0.3,0,0.4,0c9.6,0.9,19.1,3.3,28.1,6.9c8.7,3.6,17,8.4,24.4,14.2c1.9,1.5,21,18.9,19.4,20.5
			c-2.7,2.2-5.6,4.1-8.6,5.8c-14.4-20.7-38.3-34.7-63.4-37.1c-0.5,0-1-0.1-1.4,0.3c-0.4,0.3-0.4,0.9-0.4,1.4
			c-0.1,6.3-0.1,12.7-0.2,19c-14.7-0.9-29.8,2.7-42,11s-21.2,21.5-23.7,36c-3.6,0-7.3,0.1-10.9,0.1c2.7-15,10.5-29.1,21.9-39.3
			S81.8,27,97,26c0.8-0.1,1.7-0.1,2.2-0.8c0.3-0.5,0.3-1.1,0.4-1.6c0-4.3-1.7-14,0.2-17.7C101.2,2.9,108.1,4.2,112,4.6z"/>
		<path class="st0" d="M7.3,97c0.1,0.6,0.2,1.2,0.2,1.9c0,3.3,0,6.5-0.1,9.8c0,0.3-0.1,0.5-0.2,0.8C7.3,105.3,7.3,101.2,7.3,97z"/>
		<path class="st0" d="M455.1,81.9c0,1.4,0,2.7,0,3.9c0,10.2,0,20.3,0,30.5c0,0.4,0,0.8,0,1.2c0.1,1.8,0.1,1.8-1.8,1.8
			c-16.7,0-33.4,0-50,0.1c-1.2,0-2.4,0-3.7,0c0,1.5,0,2.8,0,4.1c0,5.2-0.1,10.4-0.2,15.6c0,2.2-0.1,4.4-0.1,6.6
			c0,1.1,0.6,1.7,1.9,1.7c4,0,8,0,12.1,0c15.7,0,31.5,0,47.2,0c0.5,0,0.9,0,1.5-0.1c0.1,0.6,0.2,1.2,0.2,1.8c0,11.3,0,22.7,0,34
			c0,0.7-0.1,1.3-0.2,2c-1.3-0.7-2.5-0.8-3.7-0.1c-0.3,0.2-0.8,0.1-1.2,0.1c-23.4,0-46.8,0-70.1,0c-9.2,0-18.3,0-27.5,0
			c-0.9,0-1.3-0.3-1.3-1.1c0-0.5,0-0.9,0-1.4c0-51.3,0-102.6,0-153.8c0-2,0-4,0-6c0-0.9,0.3-1.3,1.3-1.3c17.4,0,34.8,0,52.3,0.1
			c15.1,0,30.3,0,45.4,0c3,0,3,0,3,2.9c0,11,0,22.1,0,33.1c0,0.5-0.2,1-0.3,1.6c-1.2-0.5-2.2-0.7-3.2,0c-0.3,0.2-0.8,0.1-1.2,0.1
			c-16,0-32,0-47.9,0c-2,0-4,0-6,0c-1.4,0-1.6,0.2-1.6,1.6c0,5,0,9.9,0,14.9c0,1.5,0,3,0,4.5c0,1,0.3,1.5,1.3,1.4
			c1.7,0,3.3,0.1,5,0.1c16.1,0,32.2,0,48.2,0.1C454.4,81.9,454.7,81.9,455.1,81.9z M381.5,102.9c19.8,0,39.5,0,59.1,0
			c0-1.5,0-2.8,0-4.3c-19.8,0-39.4,0-59.1,0c0-18.6,0-37.1,0-55.7c20.9,0,41.7,0,62.5,0c0-1.4,0-2.8,0-4.1c-22.3,0-44.5,0-66.7,0
			c0,43.4,0,86.6,0,129.9c23.1,0,46.2,0,69.3,0c0-1.4,0-2.8,0-4.2c-21.7,0-43.4,0-65.1,0C381.5,144,381.5,123.6,381.5,102.9z"/>
		<path class="st0" d="M335.9,59.3c-1.3-0.7-2.4-0.6-3.5-0.2c-0.4,0.1-0.8,0.3-1.2,0.3c-11.1,0-22.3,0-33.4,0
			c-0.4,0-0.8-0.2-1.4-0.4c-0.1,0.7-0.2,1.5-0.2,2.3c0,37,0,73.9,0,110.9c0,3.8,0,7.5,0,11.3c0,0.8-0.2,1.1-1.1,1.2
			c-12.8,1.1-25.7,0.3-38.6,0.5c-1.8,0-1.9-0.1-1.9-1.8c0-19.8,0-39.5,0-59.3c0-21,0-42,0-63c0-2.4,0.3-2.6-2.4-2.2
			c-6,1-11.9,0.4-17.9,0.5s-12.1,0-18.1,0c-1.8,0-1.7,0.2-1.7-1.7c0-11.3,0-22.5,0-33.8c0-2.4,0.1-2.4,2.4-2.3c2.1,0.1,4.2,0,6.2,0
			c36.2,0,72.4,0,108.7,0c1.1,0,2.2-0.1,3.3,0c0.3,0,0.7,0.4,0.7,0.6c0.1,0.9,0.1,1.8,0.1,2.6c0,10.4,0,20.8,0,31.1
			C336.1,57,336,58.1,335.9,59.3z M273.1,42.2c0,42.6,0,85,0,127.4c1.5,0,2.8,0,4.3,0c0-42.5,0-84.9,0-127.4c14.4,0,28.7,0,43.1,0
			c0-1.5,0-2.8,0-4.2c-30.2,0-60.3,0-90.4,0c0,1.4,0,2.8,0,4.2C244.3,42.2,258.6,42.2,273.1,42.2z"/>
		<path class="st0" d="M593,184.4c-1.5,0.3-2.7,0.8-4,0.8c-7.4,0.1-14.9,0.1-22.3,0.1c-24.2,0-48.3,0-72.5,0c-0.5,0-0.9,0-1.4,0
			c-1.3,0-1.5-0.2-1.5-1.5c0-2.1,0.1-4.3,0.1-6.4c0-49.6,0-99.2,0-148.8c0-1.7-0.1-3.4-0.1-5.1s0-1.8,1.7-1.8c11.8,0,23.7,0,35.5,0
			c1.2,0,2.5,0.1,3.7,0c1,0,1.3,0.4,1.3,1.3c0,12.4,0,24.8,0.1,37.2c0,14.8,0,29.5,0,44.3c0,12.2,0,24.5,0,36.7c0,1.5,0,3,0,4.5
			c0,1.3,0.1,1.4,1.4,1.4c2.3,0,4.6,0,6.9,0c15.9,0,31.8,0,47.7,0c0.8,0,1.7,0.1,2.5,0.1c0.7,0,1,0.3,1,1c0,2.1,0,4.1,0,6.2
			c0,9.7-0.1,19.3-0.1,29C593.1,183.8,593,184.2,593,184.4z M515.2,164.6c0-42.6,0-85,0-127.4c-1.5,0-2.8,0-4.1,0
			c0,43.9,0,87.8,0,131.6c22.3,0,44.5,0,66.8,0c0-1.4,0-2.7,0-4.1C556.9,164.6,536.2,164.6,515.2,164.6z"/>
		<path class="st0" d="M158.9,123.5c-18.2,0-36.5,0-54.7-0.1c0-12,0-24,0-36c31.1,0,62.3-0.1,93.4-0.1c0.9,0,1.9,0,2.5,0.7
			c0.5,0.5,0.6,1.2,0.7,1.9c3.6,25-2.9,51.2-17.6,71.7s-37.6,34.9-62.5,39.4c-2.7-2.7-1.3-7.7,1.7-10.2s7-3.1,10.8-4.1
			c8.3-2.3,15.9-6.5,22.7-11.8c23.4-18,37.2-47.9,35.6-77.4c-25.7,0-51.4,0-77.2,0c0,5.2,0,10.3,0,15.5c20.2,0.1,40.3,0.1,60.5,0.2
			c-2.1,16-9.7,31.3-21.3,42.6s-27,18.6-43,20.3c-0.1,8.8-0.2,17.7-0.4,26.5c-32.3,0.9-64.6-15-83.5-41.3S2.8,99.3,14,69
			c6.2-17,17.3-31.9,31.4-43.2c7.1-5.7,15-10.5,23.4-14.1c3.8-1.6,8.9-4.3,13-4.5c4.9-0.2,5.7,4.8,5.4,9.2
			c-27.2,6.3-50.9,26.3-61.8,52s-8.7,56.7,5.7,80.6s40.7,40.4,68.5,42.9c0.1-8.7,0.3-17.4,0.4-26.1c26.7,1.7,53.5-16.7,61.5-42.2
			C160.5,123.5,159.7,123.5,158.9,123.5z"/>
		<path class="st0" d="M47.9,93.9c0.5-0.4,0.6-1.1,0.8-1.8C52,72.6,66.2,55.4,84.4,47.7c20.1-8.5,44.1-3.4,59.7,11.7
			c-2.5,2.6-4.9,5.1-7.4,7.7c-13-13.4-34.9-16.7-51.7-8.4s-27.4,27-26.9,45.7c-4.2,0.1-8.5,0.2-12.7,0.4
			c-0.4,13.3,3.9,26.7,12.1,37.3c8.2,10.5,20.1,18.1,33.1,21c0,3.5,0,7,0.1,10.5c-17.3-2.8-33.1-13.1-43.1-27.5s-14.1-32.6-12-50
			c0.1-0.6,0.2-1.2,0.6-1.5c0.4-0.3,1-0.3,1.5-0.3c2.9,0.1,5.7,0.1,8.6,0.2C46.8,94.3,47.4,94.3,47.9,93.9z"/>
	</g>
	<g>
		<path class="st0" d="M221.1,210.3l-13.6,53.8h-14.8l-8.6-33.3l-8.4,33.3h-14.8l-13.6-53.8h14l7.4,36.1l9-36.1h13.4l8.6,36.1
			l7.8-36.1L221.1,210.3L221.1,210.3z"/>
		<path class="st0" d="M276.7,237.2c0,8.7-2.3,15.5-7,20.5c-4.6,5-11,7.5-19.1,7.5s-14.5-2.5-19.1-7.6c-4.6-5-6.9-11.9-6.9-20.4
			c0-8.6,2.3-15.5,6.9-20.5s11-7.5,19.1-7.5s14.5,2.5,19.1,7.5C274.4,221.6,276.7,228.5,276.7,237.2z M262.8,237.1
			c0-3.2-0.3-5.9-1-8.2s-1.5-4.1-2.7-5.5c-1.2-1.5-2.5-2.5-3.9-3.2c-1.5-0.6-3-1-4.5-1c-1.7,0-3.2,0.3-4.5,0.9
			c-1.3,0.6-2.7,1.6-3.9,3.2c-1.1,1.4-2,3.3-2.7,5.6s-1,5.1-1,8.3c0,3.3,0.3,6,1,8.2s1.5,4,2.7,5.5s2.5,2.6,3.9,3.2
			c1.5,0.6,3,1,4.6,1s3.1-0.3,4.6-1s2.8-1.8,3.9-3.2c1.2-1.6,2-3.4,2.7-5.5C262.5,243.2,262.8,240.5,262.8,237.1z"/>
		<path class="st0" d="M334.5,264.1H318l-15-19.7h-4.8v19.7h-13.4v-53.8h21.6c3,0,5.6,0.2,7.8,0.6c2.2,0.4,4.3,1.2,6.1,2.3
			c1.9,1.2,3.5,2.8,4.6,4.7s1.7,4.3,1.7,7.2c0,4.1-0.9,7.5-2.8,10c-1.9,2.6-4.3,4.6-7.4,6.1L334.5,264.1z M312.7,226.7
			c0-1.3-0.3-2.5-0.8-3.5s-1.4-1.7-2.6-2.3c-0.8-0.4-1.8-0.6-2.8-0.7c-1-0.1-2.3-0.1-3.9-0.1h-4.5v14.5h3.9c1.9,0,3.5-0.1,4.8-0.3
			s2.4-0.7,3.3-1.5c0.9-0.7,1.5-1.5,1.9-2.4C312.5,229.5,312.7,228.2,312.7,226.7z"/>
		<path class="st0" d="M385.6,264.1h-16.3l-14.7-21.9l-2.6,3.7v18.2h-13.5v-53.8H352v23.9l17.2-23.9h15.6l-19.2,25L385.6,264.1z"/>
		<path class="st0" d="M406.6,265c-4.1,0-7.7-0.4-10.9-1.2c-3.1-0.8-6-1.8-8.7-3V248h1.2c2.7,2.3,5.7,4,8.9,5.3s6.4,1.8,9.5,1.8
			c0.8,0,1.8-0.1,3.1-0.3c1.3-0.2,2.3-0.4,3.1-0.8c0.9-0.4,1.7-1,2.4-1.7c0.7-0.7,1-1.7,1-2.9c0-1.3-0.5-2.4-1.6-3.3
			c-1.1-0.8-2.3-1.5-3.8-1.8c-1.8-0.5-3.8-0.9-5.9-1.4c-2.1-0.4-4-1-5.8-1.6c-4.2-1.5-7.2-3.4-9-5.9s-2.7-5.6-2.7-9.3
			c0-5,2.1-9.1,6.4-12.2c4.3-3.1,9.6-4.7,16-4.7c3.2,0,6.4,0.3,9.6,1s6,1.5,8.5,2.6v12.3h-1.2c-2-1.7-4.4-3.2-7.3-4.3
			c-2.9-1.2-5.8-1.8-8.9-1.8c-1.2,0-2.2,0.1-3.2,0.3c-0.9,0.2-1.9,0.5-3,1c-0.8,0.4-1.6,1-2.2,1.7c-0.6,0.8-0.9,1.6-0.9,2.5
			c0,1.4,0.5,2.5,1.5,3.3s2.9,1.5,5.7,2.2c1.8,0.4,3.5,0.8,5.2,1.2s3.5,0.9,5.4,1.6c3.7,1.3,6.5,3.2,8.3,5.4c1.8,2.3,2.7,5.3,2.7,9
			c0,5.3-2.1,9.6-6.3,12.9C419.4,263.4,413.7,265,406.6,265z"/>
		<path class="st0" d="M482.2,264.1h-13.5v-23.8h-18.4v23.8h-13.5v-53.8h13.5V230h18.4v-19.7h13.5V264.1z"/>
		<path class="st0" d="M542.4,237.2c0,8.7-2.3,15.5-7,20.5c-4.6,5-11,7.5-19.1,7.5c-8.1,0-14.5-2.5-19.1-7.6
			c-4.6-5-6.9-11.9-6.9-20.4c0-8.6,2.3-15.5,6.9-20.5s11-7.5,19.1-7.5c8.1,0,14.5,2.5,19.1,7.5C540,221.6,542.4,228.5,542.4,237.2z
			 M528.4,237.1c0-3.2-0.3-5.9-1-8.2s-1.5-4.1-2.7-5.5c-1.2-1.5-2.5-2.5-3.9-3.2c-1.5-0.6-3-1-4.5-1c-1.7,0-3.2,0.3-4.5,0.9
			c-1.3,0.6-2.7,1.6-3.9,3.2c-1.1,1.4-2,3.3-2.7,5.6s-1,5.1-1,8.3c0,3.3,0.3,6,1,8.2s1.5,4,2.7,5.5s2.5,2.6,3.9,3.2
			c1.5,0.6,3,1,4.6,1s3.1-0.3,4.6-1s2.8-1.8,3.9-3.2c1.2-1.6,2-3.4,2.7-5.5C528.1,243.2,528.4,240.5,528.4,237.1z"/>
		<path class="st0" d="M591.8,227.2c0,2.5-0.4,4.9-1.2,7.2s-1.9,4.2-3.4,5.7c-0.9,0.9-1.9,1.8-3,2.6s-2.3,1.5-3.6,2
			c-1.3,0.6-2.8,1-4.3,1.3c-1.6,0.3-3.3,0.5-5.2,0.5H564v17.6h-13.5v-53.8h20.9c3.1,0,5.8,0.3,8,0.8c2.3,0.6,4.3,1.5,6.1,2.7
			c2,1.3,3.6,3.1,4.7,5.4C591.2,221.4,591.8,224.1,591.8,227.2z M577.9,227.6c0-1.5-0.4-2.8-1.1-3.9c-0.7-1.1-1.6-1.8-2.6-2.3
			c-1.3-0.6-2.5-0.9-3.7-1s-2.8-0.1-4.8-0.1h-1.9v16.1h0.9c1.3,0,2.5,0,3.6,0s2.1-0.1,3-0.3c0.7-0.1,1.5-0.4,2.3-0.7
			s1.4-0.7,1.9-1.2c0.9-0.9,1.5-1.8,1.9-2.8C577.7,230.5,577.9,229.2,577.9,227.6z"/>
	</g>
</g>
</svg>
